<?xml version="1.0" standalone="no"?>
<!DOCTYPE svg PUBLIC "-//W3C//DTD SVG 20010904//EN"
 "http://www.w3.org/TR/2001/REC-SVG-20010904/DTD/svg10.dtd">
<svg version="1.0" xmlns="http://www.w3.org/2000/svg"
 width="1700.000000pt" height="1700.000000pt" viewBox="0 0 1700.000000 1700.000000"
 preserveAspectRatio="xMidYMid meet">
<metadata>
Created by potrace 1.14, written by Peter Selinger 2001-2017
</metadata>
<g transform="translate(0.000000,1700.000000) scale(0.100000,-0.100000)"
fill="#000000" stroke="none">
<path d="M4005 16989 c-888 -54 -1713 -375 -2425 -943 -161 -128 -498 -465
-626 -626 -533 -668 -832 -1395 -931 -2260 -17 -146 -18 -411 -18 -4660 0
-4249 1 -4514 18 -4660 99 -865 398 -1592 931 -2260 128 -161 465 -498 626
-626 668 -533 1395 -832 2260 -931 146 -17 411 -18 4660 -18 4249 0 4514 1
4660 18 865 99 1592 398 2260 931 161 128 498 465 626 626 533 668 832 1395
931 2260 17 146 18 411 18 4660 0 4249 -1 4514 -18 4660 -99 865 -398 1592
-931 2260 -128 161 -465 498 -626 626 -665 531 -1380 826 -2250 931 -136 16
-427 18 -4590 19 -2445 1 -4503 -2 -4575 -7z m5010 -829 c50 -5 151 -14 225
-20 209 -17 373 -38 540 -69 25 -5 101 -18 170 -30 213 -37 500 -109 855 -215
141 -42 525 -183 639 -235 38 -17 73 -31 78 -31 5 0 52 -20 104 -45 51 -25 96
-45 99 -45 5 0 264 -129 423 -210 56 -29 102 -56 102 -61 0 -5 6 -9 13 -9 16
0 178 -95 340 -199 65 -42 133 -85 151 -96 18 -11 44 -28 57 -37 25 -19 187
-133 223 -158 32 -22 182 -136 261 -199 76 -60 94 -75 165 -136 26 -22 73 -62
106 -90 223 -190 590 -562 794 -806 156 -185 262 -322 377 -483 39 -56 85
-119 101 -141 17 -22 40 -58 53 -80 12 -22 30 -49 39 -60 38 -44 270 -432 270
-451 0 -7 4 -14 9 -16 21 -7 361 -692 361 -727 0 -5 16 -44 36 -87 39 -85 68
-160 145 -379 65 -181 66 -183 99 -295 15 -52 40 -135 55 -185 15 -49 35 -126
45 -170 10 -44 29 -123 43 -176 14 -52 33 -140 42 -195 9 -54 29 -164 45 -244
27 -140 48 -300 70 -540 5 -63 15 -167 22 -230 16 -154 16 -867 0 -1022 -7
-65 -17 -171 -22 -235 -19 -212 -42 -396 -61 -498 -11 -55 -31 -163 -44 -240
-14 -77 -36 -185 -50 -240 -14 -55 -34 -136 -44 -180 -64 -275 -226 -752 -370
-1093 -96 -227 -290 -627 -361 -742 -15 -25 -44 -74 -64 -110 -65 -114 -107
-184 -130 -220 -46 -69 -101 -154 -121 -187 -25 -41 -219 -316 -257 -363 -64
-81 -276 -345 -313 -390 -156 -191 -548 -586 -765 -772 -30 -26 -79 -68 -109
-93 -176 -152 -689 -535 -717 -535 -4 0 -17 -8 -28 -19 -12 -10 -68 -47 -126
-83 -58 -35 -132 -81 -165 -101 -33 -21 -85 -50 -115 -65 -30 -15 -57 -30 -61
-34 -19 -26 -697 -358 -730 -358 -5 0 -32 -12 -60 -26 -87 -44 -408 -162 -619
-229 -204 -63 -353 -107 -430 -124 -47 -10 -130 -31 -185 -45 -55 -14 -165
-37 -245 -52 -80 -14 -165 -30 -190 -34 -151 -30 -296 -48 -542 -70 -65 -5
-171 -16 -235 -22 -153 -16 -870 -16 -1013 -1 -58 7 -163 17 -235 23 -196 17
-382 39 -460 55 -38 7 -124 23 -190 35 -157 28 -347 68 -410 86 -27 8 -97 25
-153 39 -96 22 -164 42 -377 109 -140 44 -348 117 -378 133 -16 8 -51 21 -78
29 -26 8 -87 32 -135 54 -47 22 -90 40 -95 40 -34 0 -720 340 -727 361 -2 5
-9 9 -16 9 -18 0 -392 223 -456 272 -14 11 -52 37 -85 59 -33 21 -71 47 -85
56 -211 148 -207 145 -404 302 -390 311 -817 726 -1086 1056 -30 37 -60 72
-65 79 -56 60 -310 397 -371 491 -21 33 -45 66 -52 73 -7 8 -20 28 -28 45 -9
18 -24 41 -34 52 -9 11 -46 67 -82 125 -35 58 -81 132 -101 165 -21 33 -50 85
-65 115 -15 30 -30 57 -34 60 -15 11 -268 507 -268 525 0 3 -20 48 -45 99 -25
52 -45 99 -45 105 0 5 -15 42 -34 83 -19 40 -49 111 -66 158 -70 191 -153 431
-179 520 -100 342 -163 592 -197 788 -14 81 -30 165 -34 187 -28 146 -47 283
-60 435 -5 58 -17 186 -26 285 -23 250 -23 869 0 1120 9 99 19 209 22 245 15
183 47 407 74 525 5 22 17 85 25 140 27 172 104 476 209 830 43 144 181 518
244 662 18 39 32 74 32 77 0 4 20 49 45 102 25 52 45 97 45 99 0 6 117 242
189 379 28 55 58 107 66 116 8 9 15 21 15 27 0 5 37 70 81 144 45 74 98 161
118 194 20 33 49 78 64 100 15 22 45 65 65 97 34 52 129 186 177 250 11 15 35
49 54 75 61 85 280 353 386 472 141 160 532 553 615 619 25 20 52 44 60 53 40
45 443 368 547 439 20 14 195 136 308 215 28 19 64 42 80 51 17 9 59 36 95 59
86 56 251 152 276 161 10 4 26 13 34 20 28 23 443 234 520 264 19 7 40 17 46
22 13 9 183 81 319 135 50 19 115 45 145 58 134 56 652 220 790 251 41 9 125
29 185 45 61 15 175 40 255 54 80 14 169 30 198 35 118 22 172 30 286 44 162
20 577 55 701 60 159 5 701 -4 800 -14z"/>
<path d="M8225 16039 c-195 -7 -292 -15 -640 -54 -220 -25 -288 -34 -335 -44
-25 -5 -128 -25 -230 -45 -102 -20 -225 -47 -275 -61 -49 -13 -145 -38 -212
-55 -67 -16 -134 -35 -150 -41 -15 -6 -84 -28 -153 -49 -117 -36 -343 -113
-400 -138 -14 -5 -68 -26 -120 -46 -52 -20 -123 -50 -158 -66 -35 -17 -65 -30
-68 -30 -9 0 -260 -118 -374 -175 -239 -121 -442 -237 -701 -400 -136 -85
-494 -344 -616 -444 -17 -14 -59 -48 -93 -76 -132 -106 -372 -325 -525 -479
-149 -149 -405 -427 -450 -487 -11 -15 -63 -80 -116 -145 -173 -215 -359 -476
-489 -684 -161 -259 -203 -332 -347 -615 -59 -116 -183 -378 -183 -388 0 -3
-18 -44 -40 -91 -22 -47 -40 -89 -40 -94 0 -9 -40 -112 -65 -167 -21 -46 -93
-255 -135 -395 -21 -69 -43 -137 -49 -153 -9 -23 -55 -196 -106 -397 -8 -30
-31 -138 -51 -240 -20 -102 -40 -205 -45 -230 -10 -47 -28 -190 -54 -430 -8
-80 -20 -188 -26 -240 -30 -277 -28 -915 5 -1220 39 -369 62 -562 74 -620 6
-25 26 -128 46 -230 20 -102 43 -210 51 -240 97 -384 203 -729 287 -935 11
-27 33 -86 50 -130 16 -44 43 -108 59 -143 16 -35 29 -65 29 -68 0 -20 207
-442 298 -609 144 -264 386 -654 453 -730 9 -11 25 -34 36 -51 19 -33 174
-239 252 -334 25 -31 64 -79 86 -106 99 -122 293 -333 454 -495 158 -157 424
-403 492 -454 15 -11 80 -63 145 -116 296 -238 661 -488 958 -655 589 -332
1246 -601 1816 -744 69 -18 143 -38 165 -45 22 -7 81 -20 130 -30 84 -16 350
-69 404 -81 14 -3 59 -9 100 -14 42 -5 153 -18 246 -29 404 -48 499 -53 895
-53 394 0 469 4 880 52 348 41 310 35 630 100 113 22 270 59 349 81 79 21 149
39 155 39 30 -1 668 212 691 230 6 4 50 22 100 40 49 18 122 48 161 67 40 18
75 33 78 33 24 0 498 239 702 354 292 164 685 433 968 661 54 44 113 91 130
105 90 70 322 285 492 455 362 361 652 712 923 1120 206 308 293 457 468 800
83 163 173 350 173 360 0 4 15 39 33 79 19 39 49 112 67 161 18 50 36 95 40
100 7 9 68 179 120 335 49 145 111 356 135 455 14 61 30 120 35 133 8 19 83
373 111 522 11 59 64 501 84 705 20 195 24 900 6 1065 -6 58 -16 150 -22 205
-34 340 -55 490 -98 700 -16 77 -35 169 -41 205 -7 36 -19 90 -27 120 -8 30
-32 123 -53 205 -21 83 -46 170 -55 195 -9 25 -29 90 -45 145 -34 117 -121
365 -149 428 -11 24 -33 79 -50 123 -72 191 -212 490 -371 785 -129 241 -302
518 -476 759 -29 41 -68 95 -86 120 -18 25 -84 110 -148 189 -63 79 -124 156
-135 170 -133 180 -723 770 -931 931 -18 14 -66 52 -106 85 -276 227 -622 465
-942 650 -29 17 -70 41 -92 54 -112 68 -663 341 -688 341 -3 0 -33 13 -68 30
-254 121 -793 298 -1263 414 -11 3 -103 22 -205 42 -102 20 -205 40 -230 46
-69 14 -446 57 -715 82 -200 19 -545 25 -820 15z m919 -479 c36 -18 43 -19 82
-5 47 16 105 8 349 -49 61 -14 180 -39 265 -56 85 -18 171 -35 190 -40 19 -5
82 -18 140 -29 178 -36 230 -52 288 -91 66 -45 135 -133 158 -204 9 -28 18
-53 20 -55 2 -2 17 8 33 22 16 13 65 39 107 57 124 52 195 40 429 -70 44 -21
134 -63 200 -93 466 -214 422 -191 491 -257 42 -40 77 -103 105 -185 7 -22 15
-42 16 -44 2 -3 19 14 38 37 38 44 91 68 127 57 30 -9 102 -58 218 -147 113
-88 134 -124 109 -192 -9 -23 -66 -114 -128 -204 -119 -171 -120 -176 -70
-202 18 -10 190 30 429 99 58 16 132 35 166 42 56 11 64 11 105 -9 24 -12 60
-36 79 -52 19 -17 72 -57 117 -91 65 -48 85 -69 100 -104 13 -32 24 -45 38
-45 36 0 72 -33 195 -175 67 -77 143 -165 170 -195 26 -30 132 -152 236 -270
103 -118 204 -240 224 -272 44 -67 64 -151 58 -242 -2 -36 -2 -66 -1 -66 2 0
21 9 43 20 104 53 141 21 288 -252 73 -133 57 -182 -87 -268 -50 -30 -117 -71
-149 -91 -31 -20 -97 -61 -147 -91 -49 -31 -157 -97 -238 -147 -82 -51 -155
-95 -163 -98 -21 -8 -18 -19 31 -100 25 -40 45 -76 45 -79 0 -3 24 -46 53 -97
29 -51 61 -109 72 -131 33 -63 13 -69 270 89 61 37 133 82 161 99 29 17 90 54
135 82 320 196 301 188 364 158 35 -16 49 -33 89 -107 107 -198 126 -237 126
-264 0 -41 -17 -87 -38 -101 -52 -35 -157 -101 -414 -259 -51 -31 -120 -73
-153 -93 -33 -20 -103 -63 -155 -95 -52 -32 -126 -78 -165 -102 -94 -59 -158
-76 -259 -71 -152 8 -259 83 -344 241 -22 40 -59 108 -84 152 -24 44 -101 181
-170 305 -69 124 -135 251 -146 282 -12 32 -30 66 -39 76 -10 10 -43 47 -73
82 -30 36 -71 83 -91 105 -71 79 -71 74 -28 417 l31 248 -44 52 c-58 71 -76
88 -90 88 -6 0 -61 -49 -122 -108 -124 -121 -161 -142 -221 -122 -35 12 -99
71 -158 150 -18 23 -83 80 -145 127 -62 47 -120 96 -129 110 -17 26 -22 68
-53 458 -19 244 -20 250 -44 268 -14 10 -27 19 -30 20 -5 2 -21 -20 -154 -217
-74 -110 -93 -132 -130 -148 -28 -13 -53 -17 -72 -13 -16 4 -83 47 -149 96
-85 63 -151 102 -224 134 -123 54 -157 85 -164 148 -4 36 1 59 30 123 62 139
96 227 92 234 -2 3 -23 15 -47 25 -88 37 -285 126 -342 155 -33 16 -60 28 -61
27 -1 -1 -16 -38 -34 -82 -19 -44 -46 -111 -62 -150 -61 -145 -112 -157 -303
-70 -67 31 -134 62 -149 70 -16 8 -54 15 -85 15 -30 0 -81 7 -111 15 -31 8
-117 26 -191 40 -74 14 -193 38 -265 54 -71 16 -202 44 -290 63 l-160 33 -635
0 c-599 0 -637 -1 -674 -19 -22 -10 -78 -26 -125 -36 -47 -10 -135 -30 -196
-44 -159 -39 -181 -44 -294 -65 -56 -11 -105 -22 -109 -25 -17 -10 -159 -36
-200 -36 -32 0 -80 -18 -195 -72 -118 -56 -162 -72 -197 -72 -48 0 -37 -5
-409 183 l-204 103 -33 -16 c-38 -18 -38 -13 13 -124 18 -40 33 -75 33 -78 0
-3 20 -52 45 -108 78 -179 65 -209 -129 -301 -128 -60 -153 -76 -280 -174 -68
-53 -123 -63 -172 -33 -17 11 -64 68 -105 127 -41 59 -83 119 -95 133 l-21 25
-122 -94 c-68 -52 -151 -116 -184 -142 -34 -27 -68 -52 -75 -56 -17 -10 0 -40
108 -196 112 -161 107 -190 -52 -313 -82 -64 -138 -121 -273 -278 -93 -109
-204 -236 -245 -283 -42 -47 -87 -100 -100 -117 -48 -60 -274 -319 -302 -346
-15 -15 -28 -35 -28 -45 0 -20 -59 -140 -134 -273 -27 -47 -74 -132 -106 -190
-224 -408 -261 -460 -355 -504 -154 -72 -279 -57 -447 53 -78 51 -98 79 -98
140 l0 37 -57 -4 c-75 -5 -148 16 -240 71 -167 98 -191 113 -244 154 -93 70
-142 162 -155 293 -12 109 7 167 116 360 29 52 75 134 101 183 27 48 71 126
98 175 26 48 69 124 93 169 87 157 155 216 284 248 38 10 71 19 73 21 2 2 -6
13 -20 24 -55 49 -75 121 -47 173 9 17 94 123 118 147 3 3 26 30 52 61 75 89
142 108 205 59 19 -15 313 -291 616 -579 l68 -65 22 25 c12 13 36 40 52 60 17
20 113 132 214 249 l184 213 -19 36 c-10 19 -28 47 -40 61 -30 37 -349 501
-363 528 -41 79 -53 216 -26 305 36 121 72 160 290 327 61 46 139 107 175 134
259 201 369 278 414 291 59 18 200 20 245 4 18 -6 34 -9 36 -7 3 2 -5 27 -16
55 -44 103 -12 149 157 229 65 30 132 62 148 70 38 18 89 18 127 -2 31 -15 64
-76 129 -239 27 -69 80 -187 85 -193 2 -2 17 4 34 12 22 12 33 27 41 59 6 23
20 71 30 107 11 36 35 128 55 205 19 77 39 151 44 165 5 14 17 52 27 85 9 33
27 68 38 78 37 33 296 148 345 153 56 6 101 -18 122 -65 17 -38 24 -39 43 -3
8 16 35 51 60 79 67 74 143 107 344 149 92 19 181 38 197 43 17 5 82 20 145
34 63 14 159 36 213 48 130 29 217 24 307 -18 36 -17 76 -42 89 -57 14 -14 28
-26 32 -26 3 0 9 27 11 60 4 52 9 66 36 93 l32 32 378 5 c938 12 913 13 956
-10z m-144 -2005 c142 -12 255 -29 435 -65 22 -4 71 -13 109 -19 119 -20 419
-101 551 -147 38 -14 111 -39 160 -56 50 -17 95 -34 100 -38 6 -4 46 -21 90
-38 87 -33 249 -108 390 -179 142 -73 412 -230 450 -263 11 -9 40 -29 65 -44
52 -31 191 -132 311 -226 275 -215 600 -541 830 -830 84 -106 219 -292 239
-330 7 -13 18 -30 24 -36 10 -10 97 -151 172 -279 108 -183 247 -479 331 -705
100 -270 93 -245 167 -515 32 -120 58 -242 107 -515 34 -189 49 -426 49 -775
0 -351 -15 -589 -49 -775 -11 -58 -31 -168 -45 -245 -14 -77 -37 -180 -51
-230 -14 -49 -36 -130 -50 -180 -13 -49 -37 -127 -54 -173 -17 -45 -42 -116
-56 -157 -14 -42 -39 -105 -55 -142 -17 -36 -30 -70 -30 -75 0 -5 -22 -56 -50
-113 -27 -57 -50 -107 -50 -110 0 -13 -223 -421 -259 -474 -10 -14 -53 -79
-97 -145 -110 -165 -123 -184 -172 -246 -23 -30 -46 -59 -50 -65 -130 -176
-432 -496 -646 -684 -154 -136 -433 -351 -522 -402 -21 -13 -41 -26 -44 -30
-18 -25 -570 -339 -596 -339 -3 0 -53 -22 -111 -50 -58 -27 -109 -50 -114 -50
-5 0 -37 -13 -71 -29 -35 -15 -92 -39 -128 -51 -36 -13 -105 -38 -155 -56
-149 -54 -445 -132 -625 -164 -63 -12 -162 -30 -220 -41 -368 -67 -1177 -67
-1550 0 -295 54 -399 76 -550 117 -91 25 -199 57 -240 71 -195 67 -288 101
-325 120 -22 11 -58 26 -80 33 -126 40 -499 233 -710 367 -55 35 -113 71 -128
81 -36 21 -202 139 -259 183 -474 365 -830 744 -1173 1249 -23 34 -121 195
-190 310 -67 113 -217 422 -261 538 -13 34 -30 77 -38 95 -60 127 -210 624
-242 797 -16 91 -31 170 -44 235 -44 227 -60 447 -60 825 0 422 15 598 80 935
4 22 13 73 20 114 14 84 109 441 141 529 11 31 34 98 51 147 16 50 42 117 58
150 15 33 33 78 40 100 17 51 200 431 244 504 18 31 64 108 101 171 38 63 76
124 86 135 10 11 24 31 31 45 12 23 97 141 203 284 112 151 282 341 462 516
345 339 610 538 1093 821 91 53 381 192 525 251 275 113 708 247 900 279 39 6
88 15 110 19 185 36 297 53 418 64 201 19 797 20 1007 1z m-6950 -3495 c80
-10 177 -24 215 -29 39 -5 151 -20 250 -32 99 -12 181 -22 182 -23 6 -5 -51
-536 -76 -704 -12 -78 -46 -126 -108 -154 -42 -19 -48 -19 -171 -3 -70 8 -170
22 -222 30 -52 8 -120 17 -151 20 -73 8 -130 44 -158 100 -29 58 -28 95 10
380 5 44 12 100 14 125 3 25 7 59 9 75 3 17 10 76 17 133 9 83 14 102 28 102
9 0 81 -9 161 -20z m12747 -12 c40 -24 74 -78 84 -132 20 -114 37 -245 55
-427 9 -95 6 -93 110 -80 49 6 108 14 131 17 l42 5 6 -43 c4 -24 5 -68 3 -98
l-3 -55 -42 -7 c-23 -4 -82 -11 -130 -17 -239 -27 -437 -53 -519 -66 -49 -8
-98 -15 -107 -15 -19 0 -16 -22 -57 345 -5 44 -16 139 -24 210 -22 185 -21
220 9 271 35 60 92 85 235 105 128 17 160 15 207 -13z m328 -948 c47 -18 93
-69 111 -123 14 -42 16 -76 10 -211 -3 -89 -6 -208 -7 -266 -1 -175 -23 -231
-105 -271 -41 -19 -54 -20 -316 -14 -150 4 -287 11 -304 16 -38 12 -88 64
-103 108 -12 38 -13 235 -2 496 8 191 14 210 90 261 l36 25 280 -5 c176 -3
291 -8 310 -16z m-12527 -126 l3 -92 -133 -6 c-73 -3 -220 -9 -325 -12 l-193
-7 0 -181 c0 -99 3 -212 7 -249 l6 -68 322 7 322 7 5 -54 c3 -30 5 -74 4 -99
l-1 -45 -155 -6 c-85 -4 -247 -7 -358 -8 -196 -1 -205 0 -235 21 -86 60 -85
59 -93 405 -4 164 -4 315 0 335 8 44 45 92 90 116 26 14 69 18 246 22 118 3
276 5 350 5 l135 0 3 -91z m30 -851 c6 -21 13 -59 16 -85 3 -25 7 -52 8 -59 2
-9 -40 -21 -147 -40 -82 -14 -204 -36 -270 -48 -66 -13 -141 -26 -168 -30 -26
-5 -50 -11 -53 -14 -5 -5 28 -250 45 -332 5 -22 9 -47 10 -55 0 -8 10 -69 20
-135 30 -184 35 -169 -56 -183 -43 -7 -83 -12 -89 -12 -13 0 -41 162 -84 473
-11 81 -27 180 -34 220 -8 40 -18 97 -21 129 -8 64 -15 58 95 78 36 6 97 18
135 25 80 16 203 37 355 61 58 8 125 22 150 29 69 21 76 19 88 -22z m11810
-277 c26 -8 85 -22 132 -31 47 -10 128 -29 180 -42 52 -13 135 -33 183 -43
105 -23 138 -41 175 -94 24 -35 27 -48 26 -110 -1 -39 -14 -127 -29 -196 -14
-69 -30 -143 -35 -165 -35 -170 -52 -240 -63 -254 -38 -49 -95 -81 -143 -81
-15 0 -91 15 -168 34 -78 19 -222 53 -321 77 -99 23 -184 46 -189 50 -5 5 -2
36 8 76 9 37 16 76 16 86 0 24 20 22 215 -24 301 -70 429 -99 430 -96 10 12
95 481 89 486 -5 4 -40 14 -79 24 -240 57 -447 106 -493 117 -47 11 -53 15
-49 34 3 11 11 54 18 94 14 81 16 82 97 58z m-11758 -579 c53 -19 85 -44 103
-80 14 -29 55 -154 76 -232 23 -85 33 -119 66 -225 40 -131 42 -168 16 -225
-36 -78 -18 -70 -515 -236 -115 -38 -214 -68 -219 -66 -12 4 -58 167 -51 179
3 4 33 16 67 27 84 27 166 57 172 63 8 8 -119 453 -134 469 -3 4 -60 -11 -126
-32 -104 -34 -122 -37 -131 -24 -12 15 -49 164 -43 169 6 4 121 43 254 87 66
22 167 55 225 75 58 19 128 42 155 49 28 8 50 14 50 14 0 0 16 -5 35 -12z
m11770 -388 c69 -27 132 -57 141 -67 51 -60 59 -80 59 -147 0 -50 3 -66 13
-62 215 89 249 98 279 75 15 -12 14 -21 -11 -98 -16 -48 -36 -89 -47 -96 -11
-7 -84 -36 -164 -64 -80 -29 -150 -57 -157 -62 -6 -5 -15 -22 -18 -38 -4 -16
-20 -64 -36 -106 -16 -43 -28 -83 -25 -89 2 -6 58 -33 125 -60 67 -26 121 -51
121 -55 0 -23 -63 -170 -73 -170 -7 0 -50 16 -97 35 -47 20 -125 52 -175 71
-49 20 -115 46 -145 59 -30 13 -102 42 -160 65 -58 23 -111 44 -117 47 -7 3
-13 0 -13 -7 0 -13 56 -175 95 -275 13 -33 33 -88 46 -123 21 -60 23 -63 48
-56 14 4 44 10 66 15 101 20 331 69 343 74 13 5 72 -20 72 -30 0 -3 -20 -45
-45 -93 l-44 -89 -183 -37 c-101 -20 -194 -39 -208 -42 -24 -4 -48 -43 -98
-156 -2 -3 18 -19 45 -34 81 -45 233 -137 233 -139 0 -10 -74 -156 -81 -161
-5 -3 -84 38 -176 92 -93 53 -197 113 -233 134 -36 20 -124 71 -197 114 l-132
77 42 84 c23 47 45 85 49 85 4 0 64 -34 134 -76 70 -41 132 -78 139 -80 8 -3
27 24 50 71 l38 75 -23 63 c-12 34 -47 129 -77 211 l-56 149 46 96 c26 53 65
150 87 216 116 339 182 523 201 562 32 66 106 109 169 97 14 -3 81 -28 150
-55z m-11275 -824 c37 -77 43 -98 35 -117 -51 -120 -149 -382 -144 -387 4 -5
104 -23 329 -61 64 -11 93 -34 116 -95 7 -16 37 -67 67 -113 54 -81 54 -83 36
-100 -20 -18 -470 -382 -488 -394 -7 -4 -6 -15 3 -31 24 -45 256 -371 266
-374 6 -2 125 89 265 202 194 155 258 201 266 192 6 -7 32 -41 57 -77 l46 -65
-181 -145 c-99 -80 -210 -169 -246 -198 -37 -30 -77 -62 -89 -72 -69 -58 -153
-65 -216 -17 -27 20 -116 138 -162 214 -13 21 -17 28 -58 83 -55 75 -132 193
-145 223 -17 40 -15 81 8 130 22 47 24 49 290 262 211 169 205 163 199 169 -2
2 -71 14 -154 25 -82 12 -194 28 -247 37 l-97 17 -130 -77 c-72 -42 -135 -76
-140 -76 -9 0 -91 146 -91 162 0 3 12 13 28 21 15 8 74 40 131 73 l103 59 43
90 c23 50 46 101 50 115 4 14 20 52 36 85 16 33 47 103 69 155 23 52 51 116
62 142 11 26 24 45 29 42 4 -2 29 -47 54 -99z m10227 -1050 c24 -22 81 -74
128 -115 147 -129 304 -274 320 -295 37 -48 46 -128 22 -185 -9 -21 -235 -319
-340 -449 -54 -66 -136 -88 -199 -53 -30 16 -264 219 -397 344 -34 32 -64 58
-68 58 -9 0 1 -195 12 -235 5 -16 8 -46 8 -65 0 -19 6 -84 13 -145 l12 -110
56 -65 c31 -36 77 -90 103 -121 l47 -56 -62 -61 c-35 -34 -68 -62 -74 -62 -6
0 -17 10 -26 23 -8 12 -23 31 -33 42 -11 11 -48 55 -84 98 -35 42 -71 79 -80
81 -8 3 -85 19 -170 36 -85 18 -182 39 -215 46 -33 8 -94 21 -135 30 -41 8
-81 17 -89 20 -10 3 8 28 59 79 86 86 78 85 245 54 199 -36 245 -43 251 -36 5
5 -6 204 -20 374 -5 52 11 82 71 141 27 26 66 71 88 100 22 28 45 52 52 52 6
0 27 -15 46 -32 19 -18 50 -46 69 -63 229 -202 290 -256 328 -292 25 -24 50
-43 56 -43 5 0 24 19 41 43 40 55 175 231 183 237 15 13 70 95 69 104 0 6 -24
31 -52 55 -54 46 -160 140 -281 250 -39 35 -90 80 -113 100 -24 19 -43 39 -43
43 0 4 24 39 53 77 l52 69 27 -17 c14 -9 46 -34 70 -56z m-9051 -728 c366
-347 429 -411 443 -448 33 -83 13 -163 -62 -245 -20 -23 -99 -116 -175 -208
-77 -93 -152 -173 -170 -183 -43 -22 -119 -20 -157 4 -16 10 -119 105 -227
209 -109 105 -222 213 -251 240 l-53 49 143 170 c79 94 176 211 217 260 41 50
102 123 135 163 33 39 63 72 66 72 3 -1 44 -38 91 -83z m623 -578 c37 -28 66
-54 64 -58 -2 -4 -34 -56 -71 -116 -37 -61 -73 -119 -80 -130 -7 -11 -35 -56
-63 -100 -28 -44 -59 -96 -69 -115 -10 -19 -21 -37 -25 -40 -3 -3 -15 -20 -26
-39 l-19 -33 35 -29 c43 -36 331 -240 346 -246 11 -4 40 40 229 347 59 96 114
185 122 198 7 12 19 22 26 22 6 -1 42 -23 79 -50 l67 -50 -91 -147 c-50 -82
-101 -164 -113 -183 -12 -19 -41 -66 -65 -105 -130 -212 -143 -225 -222 -240
-52 -10 -97 14 -294 156 -94 68 -192 139 -218 157 -56 39 -85 96 -86 165 0 50
17 92 75 182 17 28 58 93 90 145 32 52 79 127 104 167 25 39 63 99 83 132 20
34 41 61 46 61 5 0 39 -23 76 -51z m687 -472 c19 -12 49 -29 67 -36 17 -7 32
-18 32 -24 0 -9 -81 -195 -170 -392 -15 -33 -37 -82 -50 -110 -12 -27 -28 -63
-36 -79 -8 -16 -14 -35 -14 -42 0 -7 39 -33 88 -57 338 -172 469 -240 480
-251 10 -10 6 -28 -24 -94 -20 -45 -41 -82 -46 -82 -5 0 -37 15 -71 34 -34 18
-138 73 -232 121 -228 118 -391 202 -418 218 -12 6 -23 12 -24 13 -3 0 75 178
126 286 17 36 31 68 31 71 0 3 20 48 45 101 25 53 45 98 45 100 0 2 17 42 39
88 21 45 46 100 54 121 18 43 32 46 78 14z m5738 -4 c12 -28 132 -243 220
-398 26 -44 52 -91 59 -105 7 -14 19 -33 27 -43 17 -23 10 -26 215 108 292
191 346 225 355 225 10 0 100 -159 93 -164 -1 -2 -23 -16 -48 -31 -53 -33
-138 -88 -427 -277 -117 -76 -219 -141 -226 -144 -13 -5 -29 20 -145 226 -38
69 -81 145 -95 170 -14 25 -40 71 -56 102 -33 61 -58 87 -46 47 4 -13 27 -64
50 -114 24 -49 55 -117 70 -150 15 -33 54 -118 86 -189 33 -71 59 -130 59
-132 0 -4 -153 -84 -161 -84 -3 0 -25 44 -49 98 -24 53 -57 129 -75 167 -18
39 -58 124 -88 190 -30 66 -68 149 -85 185 -16 36 -39 86 -50 113 l-21 47 22
14 c23 14 51 29 132 70 56 28 76 41 120 73 39 30 49 29 64 -4z m-389 -196 c0
-1 16 -47 35 -102 20 -55 43 -120 51 -145 54 -157 86 -248 94 -265 6 -11 26
-67 45 -125 20 -58 43 -119 51 -137 26 -57 20 -66 -60 -95 -40 -16 -77 -28
-82 -28 -11 0 -18 18 -68 160 -56 159 -53 153 -82 146 -15 -4 -45 -15 -68 -26
-22 -10 -95 -40 -161 -66 -155 -61 -195 -81 -195 -99 0 -8 11 -45 25 -82 59
-157 77 -214 72 -227 -5 -12 -129 -66 -152 -66 -6 0 -39 82 -74 183 -35 100
-69 196 -76 212 -7 17 -22 57 -33 90 -11 33 -43 124 -71 203 l-50 143 32 14
c18 7 54 23 80 34 47 20 77 27 65 15 -4 -3 5 -36 19 -72 14 -37 38 -106 55
-154 30 -86 46 -104 74 -80 5 5 32 17 59 27 46 16 113 44 160 65 11 5 45 19
75 30 73 28 120 50 120 56 0 4 -25 76 -55 163 -62 174 -62 170 15 191 19 6 46
17 60 25 23 13 40 19 40 12z m-4345 -258 c110 -39 222 -77 249 -86 58 -17 112
-56 130 -92 35 -69 28 -137 -38 -341 -19 -58 -48 -152 -65 -210 -42 -147 -80
-273 -84 -276 -4 -4 -115 31 -123 39 -4 4 -16 7 -26 7 -24 0 -23 7 17 149 19
67 35 126 35 129 0 8 -62 31 -286 108 -121 41 -144 46 -158 35 -9 -7 -16 -21
-16 -29 0 -34 -64 -222 -75 -222 -14 0 -70 19 -126 44 l-37 15 18 63 c10 35
25 83 33 108 8 25 22 72 32 105 16 59 79 266 95 315 5 14 11 39 15 55 20 90
91 155 169 155 25 0 120 -28 241 -71z m3509 -133 c43 -32 74 -89 82 -150 l6
-44 -83 -19 c-75 -18 -85 -18 -96 -5 -7 9 -13 24 -13 35 0 13 -5 17 -17 13
-10 -3 -79 -19 -153 -37 -74 -17 -164 -38 -200 -46 -36 -9 -70 -19 -75 -24
-14 -10 5 -137 21 -143 6 -2 78 13 160 34 221 56 291 71 337 75 62 4 124 -31
154 -88 27 -52 55 -182 57 -257 1 -72 -1 -78 -33 -118 -39 -50 -62 -63 -151
-85 -307 -77 -440 -107 -470 -107 -46 0 -109 37 -133 77 -18 31 -49 144 -42
151 5 5 137 32 157 32 9 0 21 -13 27 -30 5 -16 11 -30 13 -30 2 0 48 11 102
25 54 14 151 37 215 51 64 14 119 29 123 32 8 9 -10 123 -22 138 -8 8 -23 8
-63 -3 -90 -24 -400 -95 -434 -100 -46 -7 -119 31 -147 76 -13 20 -29 68 -36
106 -7 39 -18 95 -25 125 -19 91 9 166 79 209 18 12 85 32 147 46 133 30 254
60 324 80 74 22 146 14 189 -19z m-2554 -116 c41 -6 98 -12 125 -15 51 -5 99
-11 325 -41 69 -9 173 -15 232 -15 l106 1 89 -107 c49 -60 138 -169 198 -243
60 -74 112 -137 115 -140 3 -3 19 -22 34 -42 16 -21 33 -35 38 -32 7 5 8 102
3 289 l-7 282 87 7 c49 3 90 4 93 1 3 -3 7 -128 8 -277 2 -150 6 -348 8 -440
4 -121 2 -169 -7 -175 -6 -4 -48 -9 -92 -11 l-81 -4 -99 123 c-95 118 -161
198 -305 371 -35 42 -68 74 -73 71 -6 -3 -6 -116 -2 -289 l7 -284 -89 0 -90 0
-7 387 c-5 214 -10 392 -13 396 -9 15 -23 -16 -23 -52 0 -32 -1 -33 -32 -27
-18 3 -76 10 -128 16 -52 5 -122 14 -155 20 -68 11 -183 23 -235 24 l-35 1 -6
-61 c-3 -33 -9 -65 -12 -71 -4 -6 27 -15 86 -22 51 -7 139 -19 197 -27 58 -8
122 -14 143 -14 22 0 40 -5 43 -14 5 -14 -13 -176 -20 -184 -3 -2 -99 8 -213
22 -283 36 -260 39 -265 -36 -3 -35 -3 -68 -1 -74 2 -6 65 -19 141 -29 75 -9
205 -27 287 -39 149 -21 150 -21 147 -46 -16 -162 -16 -165 -37 -163 -19 2
-329 38 -420 49 -22 3 -73 10 -112 15 -114 16 -126 18 -158 18 -57 2 -60 8
-47 118 7 54 19 175 28 268 8 94 20 201 26 239 6 38 12 92 13 120 3 50 13 120
20 143 4 12 23 11 165 -7z"/>
<path d="M7895 15433 c-20 -4 -20 -10 -16 -533 3 -528 -1 -602 -29 -477 -6 28
-15 70 -20 92 -5 22 -21 103 -36 180 -15 77 -29 143 -33 147 -6 7 -142 -18
-246 -45 -33 -9 -105 -26 -160 -37 -141 -30 -138 -29 -132 -53 3 -12 15 -69
27 -127 13 -58 26 -109 30 -113 5 -5 46 1 91 12 46 12 107 24 135 27 60 7 56
13 75 -107 7 -42 10 -82 7 -91 -4 -9 -44 -23 -115 -37 -59 -13 -130 -29 -158
-36 -98 -26 -417 -95 -440 -95 -15 0 -25 7 -28 23 -3 12 -24 112 -47 222 -22
110 -56 272 -75 360 -18 88 -32 161 -31 163 7 6 239 62 336 81 58 11 119 24
135 30 63 19 266 63 271 58 3 -3 11 -27 18 -54 11 -42 15 -48 37 -45 48 6 165
32 197 43 33 11 34 13 27 56 -19 127 -68 210 -153 256 -71 39 -119 36 -357
-17 -110 -24 -274 -60 -365 -80 -231 -51 -268 -64 -318 -110 -107 -98 -113
-187 -38 -521 22 -94 43 -200 66 -322 28 -154 56 -257 82 -309 12 -24 19 -46
16 -49 -3 -3 -90 38 -194 91 -104 53 -236 121 -294 150 -160 80 -149 56 -102
225 42 151 73 264 127 465 30 115 31 123 17 160 -8 21 -16 40 -18 42 -1 2 -59
-23 -128 -55 l-126 -58 -19 -65 c-11 -36 -36 -128 -57 -205 -20 -77 -53 -201
-73 -274 l-36 -135 -109 -53 c-59 -30 -117 -55 -127 -56 -20 -2 -27 12 -174
362 -24 57 -48 107 -52 112 -6 5 -224 -90 -240 -105 -3 -2 33 -86 109 -261 17
-38 45 -106 63 -150 18 -44 53 -127 78 -185 158 -366 171 -404 121 -345 -14
17 -46 59 -70 95 -24 36 -63 93 -87 126 -23 34 -91 133 -152 220 -132 192
-172 233 -244 257 -95 30 -164 17 -251 -51 -25 -19 -94 -72 -155 -118 -60 -46
-193 -146 -294 -223 -119 -90 -195 -156 -216 -186 -59 -83 -69 -189 -26 -273
22 -42 42 -73 236 -352 33 -47 77 -110 98 -140 96 -137 138 -205 135 -216 -3
-12 -193 -237 -423 -499 -44 -51 -105 -122 -135 -158 -30 -36 -62 -66 -70 -66
-8 -1 -53 36 -100 82 -47 45 -117 112 -155 148 -39 36 -169 159 -290 273
l-219 208 -36 -39 c-19 -22 -59 -68 -89 -102 l-54 -63 84 -82 c46 -45 158
-151 249 -236 259 -243 385 -368 379 -375 -4 -3 -48 20 -99 51 -52 31 -108 63
-126 70 -56 24 -124 18 -192 -17 -69 -34 -90 -60 -170 -205 -154 -282 -316
-571 -327 -583 -11 -11 -29 -3 -110 45 -54 33 -99 64 -102 70 -2 6 49 105 113
220 64 115 140 252 169 304 102 185 90 174 147 135 l36 -24 40 67 c60 101 93
172 87 182 -3 5 -35 26 -70 45 -119 67 -229 58 -315 -24 -37 -35 -79 -101
-176 -276 -70 -126 -154 -277 -186 -335 -100 -179 -112 -208 -116 -286 -7
-125 41 -197 189 -288 218 -135 208 -130 284 -131 55 0 80 5 118 25 71 36 84
53 242 340 29 52 76 138 105 190 29 52 73 131 97 175 24 44 48 84 53 89 10 10
210 -110 210 -127 0 -6 -39 -81 -87 -166 -48 -86 -105 -190 -128 -231 -107
-194 -148 -266 -156 -275 -6 -6 -25 -1 -54 14 -25 13 -47 22 -49 20 -23 -27
-126 -231 -121 -240 4 -6 44 -28 88 -50 106 -51 159 -53 249 -6 69 36 86 59
223 307 32 58 75 134 95 170 163 285 209 377 216 434 6 40 -3 101 -22 150 -10
26 13 18 55 -19 21 -19 41 -35 44 -35 2 0 38 39 78 87 41 47 112 130 159 183
47 54 132 153 190 221 328 384 391 452 477 516 40 29 73 58 73 64 0 5 -35 60
-78 122 -43 62 -97 140 -120 174 l-42 62 161 123 c88 68 224 171 301 231 77
59 144 107 149 107 13 0 27 -18 142 -184 56 -82 108 -151 114 -153 6 -2 49 25
95 59 84 64 183 120 271 153 26 10 50 22 53 27 5 8 -36 112 -142 353 -24 55
-45 111 -46 124 -3 28 -3 28 141 93 l94 42 301 -154 302 -153 54 25 c30 14 88
40 128 58 51 24 71 38 67 48 -14 36 -16 62 -6 62 6 0 29 -10 51 -21 36 -19 53
-21 123 -16 45 2 123 16 172 30 50 14 148 37 218 51 219 44 446 104 483 127
38 23 83 79 104 129 20 49 30 35 30 -45 l0 -76 608 3 607 3 135 -28 c74 -15
205 -43 290 -62 85 -19 193 -42 240 -51 81 -14 112 -21 276 -59 68 -16 72 -15
123 4 29 11 68 32 87 46 42 32 53 26 35 -18 -30 -73 -32 -69 88 -125 61 -29
115 -52 120 -52 5 0 32 56 60 125 89 217 113 265 131 265 10 0 48 -15 86 -34
38 -18 119 -56 179 -83 61 -28 164 -76 230 -106 66 -31 132 -60 148 -66 41
-16 42 -33 9 -108 -44 -100 -132 -311 -132 -317 0 -2 51 -29 113 -59 63 -31
153 -86 206 -126 52 -39 97 -71 100 -71 3 0 16 15 28 33 12 17 60 88 108 157
48 69 102 149 121 178 20 30 42 52 52 51 9 0 62 -35 117 -78 l100 -77 2 -50
c5 -101 44 -629 48 -641 2 -6 50 -47 107 -91 57 -44 134 -116 173 -161 38 -45
73 -81 77 -81 4 0 75 66 158 146 83 80 155 144 161 142 6 -2 66 -66 135 -143
83 -94 124 -148 124 -164 0 -20 -19 -179 -50 -421 -20 -158 -24 -144 75 -258
49 -56 91 -102 95 -102 4 0 15 9 25 20 30 33 38 24 31 -32 -8 -66 9 -122 70
-237 25 -47 49 -90 54 -96 4 -5 21 -35 37 -65 245 -452 295 -533 350 -569 111
-74 201 -64 358 40 22 14 69 44 105 66 36 22 135 82 220 135 85 52 228 139
317 194 90 54 163 102 163 106 0 9 -96 182 -121 218 l-15 23 -55 -35 c-29 -20
-137 -86 -239 -148 -102 -61 -201 -122 -220 -134 -19 -13 -78 -49 -130 -81
-52 -32 -126 -77 -164 -101 -38 -24 -72 -41 -77 -39 -6 4 -96 163 -254 450
-15 28 -50 90 -77 138 -39 68 -47 91 -39 101 7 8 60 43 119 79 59 35 231 141
382 234 151 93 297 181 323 197 36 21 47 32 42 44 -14 39 -121 221 -128 222
-9 0 -81 -42 -189 -109 -79 -50 -160 -100 -228 -141 -80 -48 -293 -179 -417
-257 -59 -37 -111 -78 -125 -98 -35 -52 -48 -52 -48 -2 0 24 4 68 9 98 5 30
15 105 22 167 7 62 16 115 21 118 5 3 23 -7 41 -22 79 -67 201 -85 284 -41 54
29 328 290 359 343 45 76 49 197 9 274 -12 24 -183 226 -354 421 -42 47 -143
163 -225 257 -82 95 -155 172 -161 172 -7 0 -25 -15 -42 -32 -16 -18 -124
-123 -239 -233 -114 -110 -269 -259 -344 -331 -167 -162 -219 -208 -226 -201
-8 8 -47 500 -48 615 l-1 64 60 19 c33 11 121 35 195 53 74 19 194 50 265 69
72 20 142 38 156 41 16 3 37 22 52 45 l27 40 -77 58 c-42 32 -94 70 -115 85
l-39 28 -152 -40 c-84 -22 -219 -58 -302 -80 -82 -22 -161 -43 -175 -46 -19
-4 -38 5 -76 33 -28 21 -74 55 -102 76 -29 22 -52 46 -52 54 0 8 30 58 67 111
158 230 213 313 213 321 0 9 -196 161 -208 161 -4 0 -19 -20 -34 -43 -14 -23
-76 -114 -136 -202 -61 -88 -172 -251 -248 -362 -187 -277 -207 -292 -130
-105 87 211 184 444 232 558 43 101 46 174 10 249 -39 84 -68 110 -193 170
-63 30 -117 55 -119 55 -2 0 -100 44 -217 98 -321 149 -355 164 -395 169 -82
11 -193 -47 -239 -124 -15 -25 -43 -87 -64 -137 -20 -50 -67 -163 -104 -251
-37 -88 -81 -194 -97 -235 -30 -78 -54 -118 -63 -108 -7 6 5 76 65 378 64 329
70 367 70 428 0 95 -48 184 -124 231 -32 20 -276 78 -566 136 -74 14 -178 37
-230 49 -122 30 -289 60 -296 54 -5 -6 -67 -312 -139 -693 -25 -137 -52 -275
-59 -305 l-12 -55 -452 -5 c-249 -3 -457 -3 -462 -2 -6 2 -10 54 -10 126 l0
123 173 6 c94 4 262 7 372 7 l200 0 -3 140 -3 140 -372 2 -372 3 -3 114 c-2
75 1 118 9 127 9 12 90 14 465 14 l454 0 0 140 0 140 -577 -1 c-318 -1 -587
-4 -598 -6z m1727 -363 c57 -12 119 -25 138 -30 81 -21 173 -41 300 -65 175
-33 170 -31 170 -63 0 -15 -20 -128 -44 -252 -63 -316 -96 -487 -96 -494 0
-13 -57 -4 -232 35 -101 22 -194 43 -208 46 -88 16 -278 55 -292 59 -23 7 -23
20 8 166 14 68 38 195 54 283 41 225 59 316 66 326 7 13 19 12 136 -11z m1383
-398 c28 -14 136 -64 240 -112 326 -149 355 -163 355 -175 0 -23 -103 -277
-122 -302 -10 -13 -28 -8 -100 27 -24 12 -110 52 -193 89 -82 38 -189 87 -237
109 -47 23 -102 48 -122 56 -20 8 -39 21 -42 29 -3 8 7 41 21 73 15 32 37 87
50 120 13 34 30 76 40 93 18 36 25 36 110 -7z m-6194 -700 c9 -15 49 -74 89
-131 39 -57 69 -109 66 -116 -2 -7 -55 -51 -118 -98 -62 -48 -196 -149 -297
-227 -206 -157 -188 -153 -250 -60 -21 30 -59 86 -86 124 -37 53 -46 72 -38
85 9 15 265 214 363 283 25 17 47 35 50 38 18 23 184 138 193 134 7 -2 19 -17
28 -32z m8590 -958 c41 -48 81 -94 89 -103 39 -44 231 -263 278 -317 28 -34
52 -66 52 -72 0 -14 -221 -222 -235 -222 -10 0 -120 122 -320 355 -38 45 -98
114 -133 154 l-62 72 112 109 c62 60 120 110 129 110 9 0 49 -39 90 -86z"/>
<path d="M9590 14926 c0 -7 -52 -273 -75 -386 -13 -63 -23 -116 -21 -117 1 -2
54 -14 117 -27 63 -14 169 -37 237 -52 139 -32 136 -33 147 45 4 25 24 133 46
240 21 107 37 196 36 198 -2 1 -68 16 -148 33 -79 17 -184 40 -233 51 -92 20
-106 22 -106 15z"/>
<path d="M10969 14504 c-5 -15 -12 -31 -15 -36 -3 -4 21 -20 53 -35 32 -14
130 -59 218 -100 88 -41 165 -77 171 -79 10 -4 34 43 34 66 0 4 -15 13 -32 21
-18 7 -84 36 -146 66 -62 29 -115 53 -118 53 -3 0 -37 16 -75 35 -39 19 -72
35 -75 35 -2 0 -9 -12 -15 -26z"/>
<path d="M4670 13759 c-36 -28 -122 -93 -192 -146 -71 -52 -128 -98 -128 -102
0 -14 32 -51 43 -51 7 0 43 24 79 53 37 28 97 75 134 102 36 28 84 65 107 83
22 18 49 39 60 47 18 12 18 14 2 39 -10 14 -22 26 -29 26 -6 -1 -40 -24 -76
-51z"/>
<path d="M13282 12897 l-22 -24 22 -29 c12 -16 25 -31 28 -34 3 -3 68 -76 144
-163 l139 -158 23 22 24 23 -23 25 c-85 94 -283 321 -302 347 -9 13 -14 11
-33 -9z"/>
<path d="M8999 14994 c11 -14 23 -46 27 -72 6 -40 8 -43 14 -22 4 14 10 47 14
73 l7 47 -41 0 -41 0 20 -26z"/>
<path d="M7210 14888 c-63 -15 -168 -39 -234 -53 -65 -13 -120 -25 -121 -27
-3 -3 96 -501 101 -507 3 -4 216 39 222 44 2 2 -3 14 -11 27 -9 12 -23 61 -31
107 -9 47 -26 124 -37 173 -17 71 -18 94 -10 121 20 60 59 86 155 106 48 10
89 21 92 24 16 15 -23 11 -126 -15z"/>
<path d="M6293 14737 c-7 -17 -25 -87 -42 -153 -17 -67 -37 -141 -45 -166 -9
-24 -17 -59 -18 -77 -3 -33 -2 -33 115 -93 66 -33 120 -58 122 -56 6 6 -108
565 -117 573 -2 3 -9 -10 -15 -28z"/>
<path d="M12862 13360 c-73 -21 -166 -46 -205 -55 -40 -9 -78 -20 -85 -24 -10
-6 -10 -36 -2 -147 7 -76 13 -141 15 -143 3 -2 100 88 217 200 117 112 215
204 217 206 14 10 -40 -3 -157 -37z"/>
<path d="M8240 13480 c-85 -5 -220 -17 -300 -28 -226 -32 -422 -62 -460 -72
-414 -101 -697 -192 -945 -302 -106 -47 -383 -183 -445 -218 -283 -161 -505
-311 -722 -487 -25 -21 -79 -65 -120 -98 -92 -75 -446 -429 -524 -525 -109
-133 -129 -158 -204 -257 -409 -542 -694 -1143 -865 -1828 -24 -99 -49 -214
-55 -255 -6 -41 -17 -113 -25 -160 -45 -268 -57 -430 -57 -755 0 -340 8 -434
68 -825 81 -530 311 -1176 583 -1640 28 -47 60 -103 72 -125 67 -122 247 -375
424 -595 114 -142 455 -490 590 -601 226 -186 356 -282 550 -408 55 -35 118
-76 140 -90 68 -44 381 -208 480 -251 33 -15 81 -36 107 -48 26 -12 80 -34
120 -48 40 -15 91 -35 113 -45 70 -32 314 -109 495 -155 218 -57 225 -58 428
-89 92 -14 194 -30 227 -35 279 -46 920 -46 1185 0 30 5 118 19 195 30 77 12
172 27 210 35 195 37 645 169 775 227 31 14 74 31 95 38 22 7 74 28 115 47 41
19 91 42 112 50 20 8 105 51 190 95 84 44 167 87 183 96 30 15 57 31 217 135
48 32 90 57 93 57 3 0 28 17 55 37 27 21 74 56 105 78 98 71 237 179 295 230
247 216 476 451 635 650 21 28 42 52 46 55 4 3 17 21 30 41 14 19 41 55 60 80
67 81 252 364 314 477 11 20 38 68 59 106 40 72 156 302 156 310 0 2 15 37 34
78 137 293 277 748 336 1093 71 406 82 526 82 910 0 384 -11 507 -81 905 -46
264 -169 704 -243 870 -14 31 -31 74 -38 95 -7 22 -26 69 -43 105 -16 36 -39
88 -51 115 -44 102 -187 371 -263 495 -223 363 -443 641 -743 941 -201 201
-336 318 -545 473 -44 33 -106 79 -138 103 -31 24 -59 43 -62 43 -3 0 -42 24
-88 53 -137 90 -169 109 -252 154 -623 337 -1216 529 -1865 603 -47 5 -121 14
-165 19 -116 14 -495 20 -675 11z m412 -55 c11 -14 25 -25 32 -25 6 0 17 -15
24 -34 7 -19 21 -36 33 -39 11 -3 23 -15 26 -26 3 -11 13 -23 23 -26 17 -5
110 -98 110 -109 0 -16 -32 -3 -58 24 -17 17 -38 30 -46 30 -9 0 -21 12 -26
26 -6 14 -19 28 -30 31 -11 3 -20 13 -20 23 0 9 -11 22 -26 28 -14 7 -30 25
-35 41 -6 16 -22 37 -35 46 -14 9 -22 20 -19 25 10 17 26 11 47 -15z m-855
-31 c9 -23 48 -64 62 -64 6 0 15 -8 18 -17 8 -21 80 -93 93 -93 10 0 34 -49
27 -56 -7 -7 -57 21 -57 32 0 7 -11 19 -24 28 -14 8 -27 24 -31 35 -3 11 -15
23 -26 26 -10 4 -19 13 -19 21 0 8 -9 14 -21 14 -14 0 -24 10 -32 30 -6 17
-17 30 -24 30 -17 0 -17 17 0 23 21 9 27 7 34 -9z m1833 -74 c5 0 11 -9 15
-19 3 -10 15 -21 26 -24 11 -3 23 -14 26 -25 3 -11 13 -22 24 -25 10 -3 23
-16 28 -30 5 -14 16 -27 23 -30 10 -4 9 -6 -2 -6 -8 -1 -46 28 -84 64 -38 36
-73 65 -78 65 -5 0 -6 5 -3 10 3 6 1 10 -4 10 -6 0 -11 5 -11 11 0 6 7 8 16 5
9 -3 19 -6 24 -6z m-2565 -100 c3 -5 14 -10 24 -10 12 0 20 -9 23 -25 4 -19 1
-25 -13 -25 -11 0 -19 4 -19 9 0 4 -11 20 -25 35 -16 17 -19 26 -10 26 8 0 17
-4 20 -10z m241 -236 c-3 -8 -10 -14 -16 -14 -11 0 -14 43 -3 54 10 10 26 -23
19 -40z m884 12 c0 -17 7 -26 25 -30 14 -4 25 -13 25 -22 0 -9 9 -18 19 -21
11 -3 25 -17 31 -33 6 -15 22 -32 36 -38 13 -7 24 -18 24 -27 0 -8 11 -17 25
-21 24 -6 27 -9 29 -36 1 -7 10 -15 21 -18 28 -8 33 -40 6 -40 -12 0 -21 5
-21 12 0 14 -86 98 -100 98 -6 0 -10 5 -10 11 0 15 -74 89 -89 89 -6 0 -11 9
-11 19 0 11 -9 23 -20 26 -28 9 -26 55 2 55 4 0 8 -11 8 -24z m882 2 c2 -13
13 -27 25 -33 12 -5 24 -18 27 -28 2 -10 14 -21 25 -24 12 -3 21 -11 21 -17 0
-7 11 -19 25 -26 14 -7 25 -16 25 -20 0 -10 78 -90 89 -90 12 0 25 -39 16 -48
-4 -4 -18 7 -31 23 -50 60 -67 75 -89 81 -13 3 -25 14 -28 25 -3 10 -12 19
-20 19 -9 0 -19 9 -22 21 -4 11 -18 25 -31 31 -14 6 -27 22 -30 35 -4 13 -13
27 -22 32 -9 5 -13 15 -9 25 9 23 25 20 29 -6z m-2612 -54 c0 -6 11 -16 25
-22 14 -6 25 -18 25 -27 0 -8 18 -24 39 -35 22 -11 42 -29 46 -40 3 -11 13
-20 21 -20 8 0 18 -8 21 -17 9 -23 29 -43 42 -43 6 0 11 -9 11 -19 0 -14 -5
-18 -20 -14 -11 3 -20 11 -20 18 0 8 -9 17 -21 20 -11 4 -24 17 -29 30 -5 14
-24 29 -44 36 -21 8 -36 20 -36 29 0 9 -11 22 -25 28 -14 6 -25 17 -25 25 0 7
-13 21 -30 30 -27 17 -39 45 -24 60 8 7 44 -24 44 -39z m3557 -8 c24 -23 43
-46 43 -52 0 -7 9 -14 21 -17 11 -3 23 -14 25 -25 3 -10 20 -25 38 -32 19 -7
37 -24 45 -41 8 -17 20 -29 32 -29 12 0 19 -7 19 -20 0 -11 -4 -20 -9 -20 -23
0 -41 14 -41 31 0 12 -7 19 -18 19 -10 0 -32 16 -48 35 -16 19 -37 35 -46 35
-10 0 -18 7 -18 16 0 18 -23 44 -39 44 -6 0 -11 7 -11 15 0 8 -10 20 -22 26
-27 14 -47 39 -48 56 0 20 31 3 77 -41z m-2657 -1 c0 -7 14 -19 30 -27 17 -7
30 -21 30 -30 0 -10 9 -22 19 -28 23 -12 81 -69 81 -79 0 -4 11 -13 25 -19 26
-12 35 -42 13 -42 -7 0 -24 12 -37 25 -13 14 -27 25 -32 25 -5 0 -9 7 -9 15 0
9 -11 21 -25 27 -14 6 -25 17 -25 24 0 8 -13 20 -30 29 -16 9 -30 20 -30 26 0
5 -16 26 -35 45 -20 19 -33 39 -30 44 8 13 55 -18 55 -35z m-489 -385 c11 0
22 -8 26 -17 7 -21 60 -73 88 -88 10 -6 24 -25 29 -43 5 -17 13 -32 17 -32 10
0 99 -92 99 -102 0 -17 -44 -1 -53 19 -6 13 -14 23 -19 23 -14 0 -98 93 -98
108 0 7 -11 18 -25 24 -13 6 -27 19 -30 29 -3 10 -15 21 -25 24 -10 3 -22 15
-25 26 -4 10 -11 19 -16 19 -11 0 -12 43 -1 54 4 4 8 -4 10 -18 2 -18 9 -26
23 -26z m2639 30 c0 -6 37 -47 81 -92 45 -46 85 -93 90 -105 5 -13 20 -28 34
-33 14 -5 25 -16 25 -24 0 -7 11 -21 25 -30 14 -9 25 -21 25 -26 0 -6 -11 -10
-25 -10 -15 0 -25 6 -25 14 0 8 -9 17 -19 21 -11 3 -24 19 -30 35 -5 17 -17
30 -26 30 -8 0 -23 16 -32 35 -9 19 -20 35 -25 35 -8 0 -29 17 -75 63 -13 12
-23 30 -23 39 0 10 -4 18 -10 18 -5 0 -10 9 -10 20 0 11 5 20 10 20 6 0 10 -5
10 -10z m890 -3 c0 -31 27 -65 62 -80 21 -10 38 -24 38 -32 0 -9 11 -20 24
-25 15 -5 27 -20 31 -39 4 -17 11 -31 16 -31 13 0 99 -87 99 -100 0 -6 -9 -10
-20 -10 -11 0 -20 4 -20 8 0 12 -88 102 -99 102 -5 0 -16 16 -25 35 -9 19 -21
35 -26 35 -5 0 -29 20 -54 45 -34 33 -46 53 -46 75 0 16 5 30 10 30 6 0 10 -6
10 -13z m-1740 -55 c0 -7 11 -18 25 -24 14 -6 25 -17 25 -25 0 -7 11 -18 25
-23 14 -5 28 -18 32 -27 8 -23 42 -57 71 -72 12 -6 22 -20 22 -30 0 -10 9 -21
20 -24 20 -5 29 -37 11 -37 -26 0 -221 202 -221 228 0 5 -11 13 -24 16 -24 6
-37 38 -28 65 3 10 10 7 23 -10 10 -13 19 -30 19 -37z m2655 18 c9 0 12 -6 9
-15 -4 -9 5 -21 24 -32 17 -10 33 -26 36 -36 2 -10 14 -21 25 -24 12 -3 21
-11 21 -18 0 -8 9 -16 19 -20 10 -3 21 -15 24 -26 3 -11 14 -23 24 -25 17 -5
59 -72 50 -80 -6 -7 -77 61 -77 73 0 6 -13 14 -29 18 -21 4 -33 17 -46 46 -10
21 -23 39 -28 39 -13 0 -70 59 -86 87 -16 31 -14 47 5 29 8 -9 22 -16 29 -16z
m-5307 -11 c18 -17 32 -35 32 -40 0 -5 6 -9 13 -9 8 0 20 -11 27 -25 7 -14 19
-25 25 -25 6 0 21 -18 34 -40 12 -22 28 -40 36 -40 7 0 17 -9 20 -20 3 -11 15
-25 26 -30 20 -11 27 -40 9 -40 -5 0 -31 23 -58 50 -27 28 -54 50 -60 50 -6 0
-16 16 -22 35 -6 19 -17 35 -24 35 -14 0 -116 110 -116 125 0 15 30 1 58 -26z
m1756 15 c9 -3 16 -11 16 -17 0 -13 60 -71 83 -80 11 -4 21 -16 24 -26 3 -11
11 -22 19 -25 8 -3 14 -12 14 -19 0 -8 13 -20 28 -26 17 -7 33 -24 40 -45 17
-46 15 -53 -8 -28 -12 12 -25 22 -30 22 -5 0 -11 8 -14 18 -4 11 -18 25 -31
32 -14 7 -25 18 -25 23 0 5 -34 41 -75 80 -84 80 -99 113 -41 91z m778 -203
c13 -5 57 -19 98 -31 41 -12 84 -25 95 -30 11 -5 31 -11 45 -13 31 -6 55 -14
380 -113 207 -63 243 -73 305 -87 28 -6 52 -14 55 -17 5 -6 166 -55 242 -73
25 -7 50 -15 54 -20 4 -4 16 -7 26 -7 11 0 58 -13 106 -29 114 -38 196 -61
217 -61 15 0 15 2 1 15 -8 8 -22 15 -30 15 -9 0 -23 11 -32 25 -9 13 -24 27
-35 30 -10 4 -19 13 -19 21 0 8 -11 19 -24 24 -14 5 -26 19 -28 32 -2 15 -11
24 -24 26 -16 2 -24 13 -29 39 -3 19 -4 38 -1 41 3 3 6 -3 6 -12 0 -12 5 -16
14 -13 10 4 18 -4 25 -24 5 -16 17 -29 25 -29 9 0 22 -13 31 -30 9 -16 22 -30
31 -30 8 0 19 -11 24 -25 5 -14 16 -25 25 -25 8 0 21 -11 27 -25 6 -13 19 -27
30 -30 10 -4 18 -13 18 -20 0 -16 47 -40 100 -51 41 -9 40 -9 60 -16 8 -3 35
-11 60 -18 25 -7 68 -20 95 -30 28 -10 77 -25 110 -34 123 -34 142 -40 245
-72 103 -31 226 -68 285 -85 52 -14 169 -51 193 -60 13 -5 37 -9 55 -9 l32 0
-42 28 c-24 15 -43 32 -43 38 0 6 -10 16 -22 23 -13 6 -33 28 -46 47 -44 68
-9 54 75 -31 47 -47 92 -85 100 -85 8 0 13 -6 11 -12 -5 -15 15 -38 34 -38 8
0 18 -4 24 -10 5 -5 45 -19 89 -30 44 -12 96 -26 115 -31 19 -6 49 -14 65 -18
l30 -7 6 -134 c3 -74 7 -136 8 -138 0 -1 12 -7 26 -12 14 -5 30 -21 37 -35 6
-14 15 -25 20 -25 10 0 38 -25 38 -34 0 -3 -11 -6 -24 -6 -16 0 -26 7 -29 21
-3 11 -15 23 -26 26 -19 5 -25 15 -22 36 0 4 -4 7 -9 7 -6 0 -10 -8 -11 -17 0
-10 -2 -197 -4 -416 l-3 -397 36 -39 c60 -63 82 -92 82 -108 0 -13 -3 -13 -17
-2 -30 22 -73 70 -73 80 0 5 -4 9 -10 9 -6 0 -10 -38 -11 -92 -1 -51 -3 -228
-4 -393 -2 -165 -1 -319 2 -343 5 -36 8 -42 24 -37 14 5 22 0 29 -20 5 -14 21
-30 35 -35 17 -7 25 -17 25 -35 0 -22 -2 -24 -24 -14 -14 7 -27 22 -30 35 -4
13 -13 24 -21 24 -8 0 -15 7 -15 15 0 21 -20 19 -21 -2 0 -10 -2 -201 -4 -424
l-3 -407 24 -12 c13 -8 24 -16 24 -20 0 -11 77 -87 95 -93 18 -8 20 -47 2 -47
-8 0 -20 11 -27 25 -7 13 -21 27 -30 30 -9 3 -22 17 -28 30 -6 14 -18 25 -25
25 -8 0 -20 11 -27 25 -7 14 -18 25 -25 25 -6 0 -19 14 -28 30 -10 17 -22 30
-27 30 -5 0 -15 6 -22 13 -7 7 -80 47 -163 88 -139 70 -292 150 -340 177 -11
6 -78 40 -150 76 -71 35 -188 94 -260 131 -71 37 -174 89 -227 116 l-98 50 0
304 0 305 -66 64 c-58 55 -66 67 -60 90 8 32 26 34 26 3 0 -25 32 -62 43 -51
3 4 12 -5 18 -20 28 -61 34 -21 37 252 l2 270 -37 13 c-21 7 -42 13 -48 14
-11 0 -71 18 -220 65 -94 30 -147 46 -255 75 -36 9 -76 23 -90 30 -14 7 -47
16 -75 20 -27 4 -56 12 -62 17 -28 22 -11 -5 27 -43 38 -38 51 -69 31 -69 -5
0 -19 14 -31 30 -12 17 -28 30 -35 30 -8 0 -17 11 -21 25 -3 14 -11 25 -17 25
-6 0 -18 6 -26 14 -9 7 -50 24 -91 36 -108 32 -180 56 -185 62 -3 3 9 11 27
18 18 7 54 21 80 31 26 10 56 19 68 19 11 0 55 11 98 24 302 94 478 146 496
146 10 0 16 9 16 25 0 14 -5 25 -11 25 -15 0 -136 125 -144 149 -3 12 -15 21
-25 21 -11 0 -20 10 -23 28 -6 33 -7 32 21 21 12 -5 27 -20 32 -34 5 -14 16
-25 25 -25 9 0 20 -11 25 -25 5 -14 15 -25 22 -25 7 0 19 -13 26 -30 8 -16 20
-30 28 -30 8 0 14 -5 14 -10 0 -6 11 -15 25 -20 14 -5 26 -14 26 -20 1 -5 2
-15 3 -20 2 -17 25 -28 116 -55 47 -14 114 -35 150 -46 36 -12 126 -39 200
-61 179 -52 186 -55 248 -72 28 -8 57 -18 62 -21 6 -4 10 -106 10 -270 l0
-265 25 -16 c14 -9 25 -23 25 -30 0 -8 5 -14 10 -14 11 0 69 -60 70 -72 0 -5
-7 -8 -15 -8 -17 0 -85 64 -85 80 0 5 -7 10 -15 10 -13 0 -15 -43 -13 -351 l3
-350 25 -14 c14 -7 61 -31 105 -53 44 -22 97 -49 118 -61 21 -11 44 -21 51
-21 7 0 19 -7 26 -15 7 -8 19 -15 26 -15 12 0 14 46 12 277 l-3 277 -24 13
c-28 13 -50 49 -50 78 0 18 1 18 9 -2 5 -13 14 -23 20 -23 6 0 19 -8 28 -17
16 -16 17 9 20 378 1 217 0 408 -3 426 -4 22 -14 36 -33 45 -19 9 -28 22 -30
42 l-4 30 36 -28 37 -27 -3 137 -3 137 -85 28 c-47 16 -94 28 -106 29 -11 0
-24 3 -28 7 -13 14 -157 50 -162 41 -7 -12 15 -38 32 -38 7 0 20 -13 28 -29 9
-16 24 -31 36 -34 12 -3 20 -13 20 -26 0 -29 -26 -27 -46 4 -9 13 -24 27 -34
30 -11 3 -22 14 -25 24 -3 10 -17 24 -30 31 -14 7 -25 21 -25 30 0 27 -105 70
-275 112 -22 5 -48 14 -59 20 -17 9 -147 46 -241 69 -22 5 -53 16 -70 23 -16
8 -59 22 -95 31 -36 10 -78 22 -95 28 -39 15 -136 15 -166 1 -23 -11 -106 -37
-219 -69 -30 -9 -91 -27 -135 -41 -44 -14 -90 -26 -102 -29 -12 -2 -30 -8 -40
-13 -10 -5 -35 -13 -57 -16 -21 -4 -46 -11 -55 -15 -9 -5 -34 -14 -56 -20 -82
-25 -93 -31 -88 -52 3 -10 13 -19 23 -19 11 0 20 -10 24 -25 4 -14 12 -25 20
-25 7 0 18 -11 24 -24 6 -13 20 -27 31 -31 20 -6 38 -41 26 -53 -3 -3 -21 10
-40 31 -19 20 -38 37 -43 37 -5 0 -14 11 -20 24 -6 14 -23 27 -41 31 -20 4
-31 13 -33 28 -6 41 -24 38 -268 -39 -41 -13 -102 -31 -135 -40 -33 -8 -85
-24 -115 -33 -30 -10 -73 -23 -95 -30 -22 -7 -49 -16 -60 -20 -11 -5 -54 -16
-95 -26 -41 -10 -115 -31 -165 -47 -49 -16 -121 -37 -160 -48 -203 -54 -255
-73 -255 -91 0 -12 7 -19 18 -19 29 0 97 -73 86 -92 -4 -7 -3 -8 4 -4 20 12
102 -67 102 -98 0 -18 -2 -18 -27 5 -72 62 -103 94 -103 106 0 7 -3 12 -7 11
-18 -5 -71 33 -77 55 -3 14 -15 27 -27 30 -20 5 -40 0 -183 -44 -33 -11 -65
-19 -71 -19 -23 0 -617 302 -609 309 11 9 79 33 159 55 33 10 103 30 155 47
52 16 102 29 111 29 9 0 24 9 34 20 17 19 17 20 -8 29 -27 11 -67 60 -67 84 0
29 18 27 30 -3 7 -17 19 -30 27 -30 8 0 17 -9 20 -20 3 -11 9 -20 14 -20 5 0
9 -7 9 -16 0 -13 7 -15 33 -12 37 6 203 56 229 69 10 5 26 9 35 9 10 1 36 8
58 16 22 8 49 16 61 18 12 2 43 10 70 19 98 33 145 47 159 47 9 0 23 4 33 9
15 9 116 41 167 54 56 14 247 70 295 87 30 10 84 26 120 36 36 9 69 20 73 24
12 11 -10 50 -28 50 -8 0 -21 14 -30 30 -9 17 -22 30 -30 30 -9 0 -15 10 -15
25 0 33 28 33 40 -1 6 -14 19 -28 29 -31 10 -2 24 -16 30 -29 6 -13 17 -24 26
-24 8 0 15 -7 15 -15 0 -9 9 -15 21 -15 23 0 172 45 201 61 10 5 25 9 35 9 35
0 133 35 133 47 0 7 -8 13 -18 13 -11 0 -45 9 -78 20 -32 12 -69 23 -82 26
-13 2 -40 11 -60 19 -20 7 -73 23 -117 35 -44 12 -123 35 -176 51 -90 28 -100
29 -135 16 -22 -8 -73 -24 -114 -36 -41 -11 -106 -30 -145 -42 -38 -12 -83
-25 -100 -29 -97 -27 -274 -80 -298 -89 -23 -9 -26 -14 -18 -30 6 -11 24 -25
41 -33 17 -7 33 -21 36 -31 3 -10 16 -25 30 -33 13 -9 24 -22 24 -30 0 -7 11
-16 24 -20 23 -5 46 -40 46 -69 0 -30 -45 -5 -54 30 -3 13 -20 32 -36 40 -17
9 -30 22 -30 30 0 9 -16 23 -35 32 -19 9 -35 21 -36 27 0 6 -15 23 -33 38
l-33 27 -78 -24 c-43 -14 -83 -25 -90 -25 -7 0 -26 -7 -41 -15 -16 -8 -40 -15
-54 -15 -14 -1 -36 -7 -50 -15 -14 -8 -37 -14 -52 -15 -16 0 -28 -4 -28 -9 0
-5 -19 -11 -42 -15 -24 -4 -56 -11 -73 -16 -16 -6 -50 -16 -75 -24 -39 -13
-45 -18 -42 -40 2 -20 -2 -26 -16 -26 -11 0 -22 9 -25 19 -5 19 -7 19 -88 -5
-155 -45 -224 -66 -239 -74 -9 -4 -36 -11 -60 -15 -24 -4 -51 -11 -60 -15 -8
-5 -51 -18 -95 -30 -104 -29 -110 -34 -84 -71 11 -16 27 -29 34 -29 8 0 17
-11 21 -25 3 -14 12 -25 19 -25 8 0 16 -9 20 -19 3 -10 15 -21 26 -24 11 -3
23 -15 26 -26 3 -12 11 -21 19 -21 7 0 21 -12 31 -27 10 -16 23 -32 30 -36 7
-4 13 -15 13 -24 0 -12 -7 -9 -26 11 -15 14 -33 26 -40 26 -8 0 -14 7 -14 15
0 8 -14 21 -30 30 -17 9 -30 22 -30 30 0 8 -7 15 -15 15 -9 0 -21 11 -27 25
-6 13 -19 27 -29 30 -9 3 -20 17 -23 30 -4 14 -13 25 -22 25 -9 0 -18 9 -21
20 -6 22 -49 28 -81 11 -9 -5 -51 -19 -92 -31 -41 -12 -86 -26 -100 -31 -14
-5 -52 -16 -85 -24 -60 -16 -273 -80 -309 -94 -15 -6 70 -51 350 -190 203
-100 407 -202 454 -226 47 -23 143 -71 214 -106 72 -35 240 -119 375 -185 171
-84 247 -117 249 -108 3 13 -20 44 -32 44 -3 0 -25 18 -47 40 -35 33 -39 42
-29 55 10 12 16 13 26 4 8 -6 14 -17 14 -25 0 -7 14 -22 30 -34 17 -12 30 -28
30 -36 0 -8 8 -14 19 -14 11 0 23 -12 31 -30 7 -16 16 -27 21 -24 5 3 14 -6
20 -20 7 -14 24 -30 38 -35 14 -6 33 -15 41 -20 8 -6 128 -65 265 -131 138
-67 268 -131 290 -143 22 -12 51 -27 65 -34 90 -46 902 -444 933 -456 44 -19
50 -3 7 21 -16 9 -30 22 -30 28 0 6 -9 19 -20 29 -22 19 -26 40 -10 50 5 3 16
-8 25 -25 8 -16 22 -30 31 -30 8 0 19 -11 24 -25 5 -14 14 -25 20 -25 6 0 32
-23 58 -51 41 -44 80 -67 327 -189 1133 -561 1336 -660 1349 -660 13 0 12 4
-4 20 -11 11 -20 24 -20 29 0 5 -9 13 -20 16 -13 4 -20 15 -20 31 0 30 22 31
35 2 6 -13 19 -27 31 -32 24 -11 49 -60 39 -76 -4 -7 -1 -10 8 -8 8 2 23 -6
34 -17 10 -11 27 -25 38 -32 36 -22 186 -93 196 -93 5 0 9 -4 9 -10 0 -5 7
-10 15 -10 12 0 77 -32 160 -78 11 -6 115 -57 230 -113 116 -56 213 -107 217
-113 5 -6 5 -72 2 -146 -3 -74 -7 -167 -8 -206 -1 -39 -6 -78 -13 -85 -6 -8
-13 -32 -16 -54 -2 -22 -12 -67 -22 -100 -9 -33 -21 -76 -24 -96 -4 -19 -15
-48 -23 -65 -9 -16 -22 -45 -29 -64 -53 -147 -193 -389 -326 -565 -148 -195
-371 -426 -578 -600 -38 -32 -75 -64 -81 -69 -12 -12 -52 -45 -166 -134 -65
-52 -228 -171 -292 -214 -10 -7 -38 -28 -62 -45 -23 -18 -46 -33 -49 -33 -4 0
-77 -47 -164 -104 -86 -58 -173 -112 -192 -121 -20 -9 -41 -25 -47 -36 -10
-15 -8 -20 16 -31 28 -14 36 -38 15 -45 -6 -2 -19 10 -29 26 -10 17 -22 31
-26 31 -13 0 -67 -26 -120 -57 -117 -69 -211 -121 -312 -173 -102 -52 -138
-80 -103 -80 8 0 22 -16 31 -35 9 -19 24 -35 32 -35 8 0 19 -11 24 -25 5 -14
16 -25 24 -25 19 0 38 -26 34 -46 -2 -13 -28 7 -95 73 -88 85 -93 89 -120 79
-30 -12 -122 -56 -399 -192 -94 -46 -181 -84 -193 -84 -13 0 -52 14 -88 30
-35 17 -99 44 -141 62 -42 17 -82 35 -87 39 -6 4 -62 30 -125 57 -119 51 -443
209 -540 263 -30 17 -86 48 -125 68 -148 80 -259 145 -366 214 -84 54 -149 89
-149 80 0 -14 15 -29 33 -36 11 -4 21 -15 23 -25 3 -9 18 -25 35 -34 16 -9 29
-23 29 -31 0 -8 11 -19 25 -25 14 -6 25 -18 25 -26 0 -8 11 -23 25 -34 14 -11
25 -27 25 -36 0 -15 -3 -15 -27 1 -15 10 -39 31 -53 46 -14 16 -51 56 -83 90
-32 34 -61 65 -65 70 -4 4 -19 17 -34 28 -18 13 -28 30 -28 47 -1 22 -12 34
-56 62 -31 19 -63 41 -72 47 -10 7 -46 34 -82 60 -298 216 -413 314 -640 542
-191 191 -287 306 -402 476 -102 153 -198 324 -198 355 0 7 -8 24 -18 38 -10
15 -31 68 -47 117 -15 50 -31 97 -35 105 -4 8 -13 40 -20 70 -7 30 -16 64 -20
75 -5 11 -11 40 -13 65 -3 25 -10 81 -16 125 -6 44 -12 144 -14 222 l-3 141
-42 39 c-23 22 -42 43 -42 49 0 5 -10 14 -22 19 -29 13 -35 55 -8 55 11 0 20
-6 20 -14 0 -8 13 -25 29 -38 16 -13 34 -34 41 -47 9 -19 14 -21 21 -10 4 8 8
286 7 619 -2 544 0 605 14 602 8 -1 49 -20 89 -42 41 -22 103 -54 139 -70 36
-17 73 -35 83 -41 86 -48 612 -309 623 -309 8 0 14 5 14 10 0 6 -6 10 -13 10
-8 0 -27 16 -43 35 -16 19 -34 35 -40 35 -6 0 -16 12 -23 26 -6 15 -14 24 -18
21 -8 -9 -43 38 -43 57 0 9 -6 16 -14 16 -7 0 -16 11 -18 25 -7 33 18 34 26 1
3 -14 15 -27 26 -31 10 -3 22 -15 25 -26 4 -11 18 -24 31 -29 13 -5 24 -15 24
-23 0 -13 74 -87 88 -87 9 0 32 -49 32 -67 0 -7 9 -13 19 -13 11 0 21 -4 23
-8 2 -5 62 -39 133 -76 72 -38 136 -73 143 -78 7 -6 12 -35 12 -73 0 -60 2
-65 37 -97 58 -52 123 -122 123 -130 0 -20 -33 -4 -70 33 -22 22 -40 43 -40
46 0 7 -33 32 -42 33 -5 0 -8 -147 -8 -327 0 -319 1 -330 25 -412 14 -47 34
-103 46 -125 33 -63 158 -235 213 -293 54 -57 84 -73 42 -22 -26 31 -30 41
-20 51 7 8 54 -36 54 -51 0 -6 5 -11 10 -11 6 0 10 -9 10 -20 0 -13 7 -20 20
-20 13 0 24 -10 30 -25 5 -14 21 -30 35 -35 27 -10 35 -40 10 -40 -18 0 -9
-26 12 -34 11 -4 13 -2 9 9 -7 18 15 20 32 3 15 -15 16 -42 1 -32 -7 4 -10 1
-7 -7 2 -7 18 -13 34 -14 24 0 29 -4 27 -22 -2 -21 33 -59 102 -110 17 -12 50
-37 75 -57 137 -108 369 -266 465 -317 22 -12 47 -28 56 -36 9 -8 32 -22 50
-32 44 -23 211 -116 269 -149 25 -14 63 -34 85 -45 22 -11 47 -23 55 -28 8 -5
24 -13 35 -18 68 -31 95 -44 134 -66 24 -14 48 -25 54 -25 9 0 450 -216 567
-278 92 -49 130 -62 154 -56 14 3 27 0 32 -7 5 -9 2 -10 -9 -6 -10 3 -17 3
-17 -1 0 -4 20 -16 45 -27 25 -11 45 -23 45 -27 0 -7 106 -58 120 -58 4 0 54
29 111 65 57 35 117 72 133 81 31 17 221 143 294 194 23 16 47 30 52 30 6 0
10 4 10 8 0 5 10 14 23 20 12 5 33 19 47 30 14 11 65 50 114 87 119 90 206
166 206 179 0 4 -5 4 -10 1 -15 -9 -43 23 -36 41 7 17 26 10 26 -11 0 -12 20
-25 39 -25 9 0 27 15 126 104 202 183 413 419 518 582 54 84 133 226 143 256
3 13 15 43 26 68 31 70 35 81 52 145 9 33 23 83 31 111 28 96 25 99 -163 192
-92 46 -173 82 -179 82 -8 0 -13 -16 -14 -42 0 -24 -2 -52 -5 -63 -2 -11 -9
-57 -15 -102 l-10 -82 40 -40 c23 -22 41 -46 41 -53 0 -7 10 -18 22 -23 23
-11 45 -55 27 -55 -6 0 -26 16 -43 35 -18 19 -37 35 -42 35 -6 0 -16 16 -24
35 -8 19 -19 35 -25 35 -6 0 -19 -24 -29 -52 -38 -106 -148 -292 -248 -417
-53 -67 -352 -370 -431 -437 -58 -50 -58 -50 -43 -78 8 -16 21 -33 28 -38 11
-6 10 -10 -1 -17 -10 -6 -21 -1 -38 20 -14 16 -29 29 -35 29 -6 0 -42 -24 -82
-54 -161 -123 -228 -173 -291 -216 -37 -25 -78 -53 -91 -64 l-25 -18 32 -32
c46 -45 83 -96 75 -103 -4 -4 -21 7 -37 25 -17 18 -41 40 -55 48 -13 9 -24 23
-24 31 0 19 -29 10 -85 -28 -24 -16 -50 -29 -59 -29 -8 0 -50 17 -93 39 -43
21 -149 74 -236 117 -87 43 -160 81 -163 85 -2 4 17 19 43 34 99 57 223 138
223 145 0 20 -13 40 -27 40 -7 0 -22 13 -31 30 -9 16 -30 35 -45 41 -15 7 -38
29 -49 49 -12 20 -31 41 -41 46 -25 11 -43 54 -22 54 7 0 16 -8 19 -18 4 -11
18 -25 31 -32 14 -7 25 -19 25 -26 0 -6 15 -19 34 -28 19 -9 37 -25 41 -35 3
-10 17 -23 30 -29 14 -6 25 -18 25 -25 0 -13 39 -37 61 -37 9 0 195 124 275
184 71 53 209 160 220 171 6 5 35 30 65 55 149 126 268 244 398 395 75 88 175
258 187 319 2 11 8 24 14 30 11 11 14 224 4 275 -4 17 -12 31 -18 30 -20 -2
-56 13 -56 24 0 5 -11 20 -25 33 -25 23 -34 64 -15 64 5 0 15 -11 22 -24 7
-14 30 -36 50 -50 l38 -25 6 24 c9 37 0 50 -53 75 -130 60 -498 245 -501 252
-2 5 -10 8 -18 8 -8 0 -35 11 -62 25 -26 13 -151 76 -278 138 -127 63 -239
119 -250 125 -66 36 -693 341 -711 347 -13 3 -23 11 -23 16 0 5 -5 9 -12 9 -6
0 -244 115 -527 256 -284 141 -613 303 -731 361 -118 57 -224 109 -235 116
-62 35 -216 107 -229 107 -26 0 -18 -14 14 -28 17 -8 30 -18 30 -24 0 -11 69
-78 82 -78 5 0 11 -13 15 -30 3 -17 12 -30 20 -30 8 0 24 -11 35 -25 11 -14
25 -25 33 -25 7 0 15 -11 18 -26 4 -21 1 -25 -17 -22 -11 2 -25 13 -31 26 -5
12 -16 22 -23 22 -7 0 -18 11 -24 25 -6 13 -20 27 -30 31 -11 3 -24 17 -30 30
-6 13 -17 24 -25 24 -7 0 -13 5 -13 10 0 14 -66 80 -80 80 -9 0 -13 17 -11 50
0 10 -124 77 -382 204 -210 104 -466 231 -568 282 -103 51 -190 90 -193 87 -8
-8 -8 -287 0 -307 3 -9 12 -16 20 -16 8 0 14 -6 14 -13 0 -8 9 -22 20 -33 11
-10 29 -27 39 -38 11 -10 17 -24 15 -31 -6 -16 -44 -7 -44 10 0 7 -7 19 -16
26 -9 7 -21 25 -26 39 l-11 25 -7 -25 c-14 -45 -11 -86 8 -102 9 -8 66 -38
125 -67 78 -39 114 -51 132 -47 15 4 25 2 25 -4 0 -6 -4 -8 -10 -5 -5 3 -10 2
-10 -2 0 -5 9 -13 20 -18 36 -18 393 -197 524 -262 71 -35 136 -68 145 -73 65
-36 672 -330 681 -330 5 0 10 -4 10 -10 0 -5 5 -10 10 -10 6 0 232 -110 503
-244 271 -134 665 -329 877 -434 614 -303 794 -393 810 -402 8 -5 74 -36 145
-70 72 -34 150 -72 175 -86 25 -13 71 -36 102 -50 31 -14 59 -33 62 -41 4 -9
-7 -38 -22 -67 -16 -28 -37 -67 -48 -86 -10 -19 -24 -39 -30 -45 -6 -5 -30
-35 -54 -65 -70 -91 -98 -120 -116 -120 -17 0 -125 47 -134 59 -3 3 -25 16
-50 27 -182 87 -265 129 -268 136 -2 4 -8 8 -14 8 -6 0 -103 45 -214 100 -112
55 -206 100 -209 100 -13 0 -2 -27 22 -52 21 -22 23 -28 10 -28 -9 0 -33 17
-54 38 -21 22 -46 42 -55 45 -10 4 -18 15 -18 26 0 17 -91 65 -502 269 -277
137 -510 252 -518 256 -8 3 -22 10 -30 15 -8 5 -49 26 -90 46 -41 20 -82 40
-90 45 -27 16 -329 160 -335 160 -4 0 -12 6 -19 13 -18 17 -94 42 -103 33 -4
-3 3 -13 15 -22 23 -16 30 -44 12 -44 -16 0 -79 66 -90 94 -7 20 -92 65 -427
231 -230 114 -427 212 -438 218 -11 6 -38 19 -60 30 -22 11 -47 23 -55 28 -8
4 -40 20 -70 34 -45 21 -231 114 -325 162 -89 45 -274 132 -293 138 -22 6 -23
5 -13 -14 16 -30 -5 -28 -38 4 -204 196 -266 275 -216 275 8 0 15 -7 15 -16 0
-16 23 -44 37 -44 4 0 16 -14 25 -31 10 -17 22 -27 28 -24 6 4 9 150 7 419 -2
371 -4 414 -19 429 -9 9 -24 17 -32 17 -9 0 -16 4 -16 9 0 5 -16 26 -35 47
-37 39 -42 66 -12 72 10 2 20 -5 26 -20 5 -13 23 -38 40 -57 17 -19 31 -39 31
-45 0 -6 4 -5 9 3 5 8 10 163 10 343 0 181 3 333 6 339 4 5 14 9 24 9 10 0 36
7 57 16 l39 16 -30 24 c-17 13 -25 24 -20 24 6 1 -5 7 -22 15 -18 8 -33 21
-33 30 0 8 -11 20 -25 25 -14 5 -25 16 -25 25 0 9 -11 20 -25 25 -14 5 -28 18
-32 27 -3 10 -15 25 -26 34 -25 20 -30 44 -12 59 9 8 17 2 29 -25 9 -19 26
-39 36 -45 11 -6 20 -17 20 -25 0 -8 10 -17 23 -20 12 -4 27 -16 32 -28 6 -12
20 -26 33 -32 12 -5 22 -17 22 -26 0 -9 11 -20 24 -23 13 -3 26 -15 29 -25 7
-30 49 -35 114 -15 32 9 62 21 67 26 6 4 19 8 30 8 11 0 38 6 61 14 22 8 87
28 145 46 58 17 116 35 130 40 14 4 46 14 73 20 51 14 59 30 27 57 -22 19 -28
57 -7 51 6 -3 17 -16 24 -29 22 -45 53 -54 120 -34 32 9 74 23 93 30 31 12
122 40 215 65 49 14 168 51 190 60 11 4 47 15 80 24 33 9 87 25 120 35 33 10
80 24 105 31 25 7 63 18 85 25 22 7 60 18 85 25 25 7 70 21 100 30 30 10 76
23 102 30 26 7 54 20 63 30 15 16 14 18 -5 23 -12 3 -24 15 -27 26 -3 11 -9
19 -13 16 -12 -7 -22 47 -11 58 6 6 16 -4 28 -32 10 -22 23 -41 30 -41 7 0 17
-10 24 -21 9 -18 17 -21 54 -16 24 4 58 13 76 21 19 8 63 22 99 31 36 10 90
25 120 35 30 10 73 22 95 28 57 16 165 49 200 61 17 6 77 24 135 41 58 17 132
39 165 49 33 10 80 24 105 31 25 7 54 16 65 20 27 11 30 11 57 1z m-3182 -67
c0 -8 -6 -14 -14 -14 -18 0 -29 27 -13 33 16 6 27 -1 27 -19z m5497 -172 c9
-21 29 -46 45 -55 15 -9 28 -23 28 -30 0 -8 9 -17 21 -20 11 -3 23 -14 25 -24
3 -10 15 -23 27 -28 12 -6 26 -19 31 -31 5 -11 19 -25 30 -30 24 -10 34 -44
14 -44 -7 0 -24 14 -38 30 -14 17 -30 30 -36 30 -7 0 -14 9 -17 20 -3 11 -17
24 -32 30 -15 6 -25 13 -21 17 3 4 -6 14 -21 24 -57 38 -108 121 -86 142 10
11 12 9 30 -31z m873 13 c0 -14 4 -25 10 -25 5 0 22 -13 37 -30 14 -16 32 -30
39 -30 7 0 14 -10 16 -22 2 -15 11 -24 24 -26 26 -4 41 -42 17 -42 -17 0 -93
72 -93 87 0 5 -15 15 -34 23 -34 13 -51 46 -39 77 9 22 23 14 23 -12z m-6202
-3 c3 -9 -2 -13 -14 -10 -9 1 -19 9 -22 16 -3 9 2 13 14 10 9 -1 19 -9 22 -16z
m905 -10 c-2 -6 13 -27 32 -45 19 -19 35 -39 35 -44 0 -6 14 -16 30 -23 17 -7
30 -18 30 -25 0 -8 4 -15 8 -17 5 -1 32 -23 61 -47 36 -32 47 -47 39 -53 -9
-5 -8 -8 5 -8 10 0 16 -4 12 -10 -3 -5 -13 -6 -23 -3 -17 7 -48 33 -38 33 3 0
-14 20 -38 45 -25 25 -51 45 -60 45 -9 0 -16 7 -16 15 0 8 -13 21 -30 30 -16
9 -30 22 -30 31 0 8 -11 19 -24 24 -22 8 -41 52 -28 65 10 10 37 -1 35 -13z
m-879 -18 c9 -3 16 -12 16 -20 0 -8 6 -14 13 -14 16 0 50 -34 42 -42 -3 -3 8
-11 25 -18 17 -7 30 -20 30 -30 0 -10 9 -20 21 -23 11 -3 23 -15 26 -26 3 -11
14 -23 24 -26 18 -6 45 -43 37 -50 -8 -9 -49 8 -45 19 4 12 -34 46 -52 46 -6
0 -11 9 -11 20 0 11 -8 24 -17 27 -10 4 -26 17 -36 30 -10 13 -24 23 -30 23
-17 0 -67 55 -67 74 0 18 2 19 24 10z m6383 -184 c14 -16 32 -30 40 -30 7 0
13 -11 13 -26 0 -30 -20 -28 -34 2 -5 11 -22 28 -38 37 -15 9 -28 23 -28 32 0
23 17 18 47 -15z m-7037 -49 c0 -23 -16 -36 -25 -21 -9 14 1 40 15 40 5 0 10
-9 10 -19z m7290 -197 c6 -14 19 -28 29 -31 10 -2 24 -16 30 -29 6 -14 18 -27
27 -31 8 -3 20 -16 25 -29 5 -14 17 -24 29 -24 11 0 20 -5 20 -12 0 -13 68
-78 81 -78 5 0 9 -9 9 -20 0 -22 -3 -23 -37 -14 -14 4 -27 20 -35 40 -8 22
-19 34 -30 34 -10 0 -18 4 -18 10 0 5 -38 47 -85 93 -81 80 -103 117 -70 117
9 0 20 -12 25 -26z m416 -421 c-3 -8 -1 -11 4 -8 6 3 10 -1 10 -9 0 -9 6 -16
13 -16 17 0 79 -98 71 -112 -4 -6 -15 8 -26 31 -10 22 -25 41 -34 41 -8 0 -19
11 -23 24 -5 13 -16 26 -24 29 -10 4 -13 13 -10 26 3 12 10 18 15 15 5 -3 7
-13 4 -21z m-7956 -4 c0 -5 -4 -9 -10 -9 -5 0 -10 7 -10 16 0 8 5 12 10 9 6
-3 10 -10 10 -16z m40 -43 c5 -13 18 -27 29 -31 11 -3 23 -15 26 -26 4 -11 28
-40 53 -65 58 -54 56 -52 92 -91 17 -18 35 -33 41 -33 5 0 8 -4 5 -9 -11 -17
-44 -5 -70 27 -16 17 -32 30 -37 26 -5 -3 -9 0 -9 6 0 6 -27 39 -60 72 -33 33
-60 66 -60 74 0 8 -11 20 -25 26 -27 12 -34 48 -10 48 9 0 20 -11 25 -24z
m7298 -245 c3 -16 -1 -22 -10 -19 -7 3 -15 15 -16 27 -3 16 1 22 10 19 7 -3
15 -15 16 -27z m-870 -2 c-2 -6 -8 -10 -13 -10 -5 0 -11 4 -13 10 -2 6 4 11
13 11 9 0 15 -5 13 -11z m-2428 -218 c22 -22 40 -45 40 -52 0 -7 3 -9 7 -6 8
9 43 -22 43 -38 0 -6 16 -17 35 -25 19 -8 35 -19 35 -26 0 -7 12 -21 28 -32
20 -16 24 -23 15 -32 -13 -14 -33 -5 -33 15 0 8 -16 19 -35 26 -19 7 -35 18
-35 24 0 5 -14 19 -30 30 -16 11 -30 23 -30 28 0 4 -21 29 -46 55 -81 82 -88
94 -62 120 10 10 14 7 21 -17 4 -17 25 -48 47 -70z m-1800 43 c0 -8 5 -14 10
-14 6 0 10 -8 10 -19 0 -10 9 -21 21 -24 11 -3 23 -14 25 -24 3 -11 19 -24 35
-30 18 -7 29 -18 29 -30 0 -10 10 -23 23 -28 12 -6 21 -16 20 -23 -2 -6 8 -14
21 -18 13 -3 28 -16 34 -29 10 -21 9 -23 -10 -22 -12 1 -23 10 -26 19 -2 10
-15 21 -28 24 -22 6 -26 11 -23 30 0 4 -11 14 -26 24 -14 9 -33 27 -41 39 -8
11 -22 21 -30 21 -8 0 -19 11 -24 24 -5 14 -18 30 -30 36 -11 6 -20 17 -20 25
0 8 -7 15 -15 15 -9 0 -15 9 -15 24 0 24 1 24 30 10 17 -9 30 -22 30 -30z
m2625 36 c3 -5 -1 -10 -9 -10 -9 0 -16 5 -16 10 0 6 4 10 9 10 6 0 13 -4 16
-10z m2685 -40 c7 -22 18 -40 24 -40 14 0 98 -87 94 -96 -2 -4 8 -11 20 -15
13 -5 26 -17 29 -28 2 -10 20 -25 39 -34 19 -9 34 -24 34 -33 0 -23 -39 -8
-71 27 -15 15 -30 25 -33 22 -3 -4 -6 -1 -6 6 0 15 -84 101 -99 101 -6 0 -11
6 -11 13 0 17 -34 49 -43 41 -7 -7 -27 39 -27 62 0 8 8 14 18 14 13 0 23 -13
32 -40z m-7978 13 c9 -10 18 -27 22 -39 3 -11 22 -27 41 -34 19 -8 35 -18 35
-23 0 -11 26 -37 37 -37 5 0 13 -10 18 -22 6 -13 21 -28 35 -35 14 -7 21 -13
16 -13 -6 0 0 -9 12 -20 23 -22 30 -50 12 -50 -6 0 -15 10 -20 23 -5 12 -9 18
-9 13 -1 -5 -30 21 -66 58 -35 36 -70 66 -78 66 -7 0 -21 14 -31 30 -9 17 -21
28 -26 25 -4 -3 -14 10 -21 28 -7 17 -14 35 -17 40 -8 15 25 6 40 -10z m3972
-433 c3 -17 9 -29 13 -28 5 2 49 -39 98 -91 50 -52 103 -107 119 -123 16 -16
26 -34 22 -43 -8 -22 -25 -18 -36 9 -5 13 -18 27 -29 31 -12 3 -21 10 -21 15
0 5 -12 22 -27 38 -16 16 -48 52 -73 80 -25 28 -57 56 -72 63 -21 8 -28 18
-28 39 0 48 24 56 34 10z m-3502 -42 c14 -16 31 -28 37 -28 6 0 11 -6 11 -13
0 -14 75 -87 90 -87 5 0 16 -15 24 -34 8 -19 24 -39 35 -46 21 -11 30 -50 12
-50 -12 0 -41 29 -41 41 0 5 -11 14 -25 19 -14 5 -25 14 -25 20 0 6 -16 26
-35 46 -19 19 -35 37 -35 39 0 2 -22 26 -48 52 -27 26 -52 58 -55 71 -5 20 -3
22 11 10 9 -7 29 -25 44 -40z m4389 28 c6 -13 20 -27 31 -29 11 -3 22 -14 25
-25 2 -10 20 -26 38 -35 18 -9 36 -24 39 -34 3 -10 16 -23 28 -28 13 -6 23
-14 23 -20 1 -20 26 -55 39 -55 13 0 26 -20 26 -41 0 -16 -20 -10 -38 12 -35
43 -134 139 -143 139 -5 0 -9 5 -9 10 0 6 -20 30 -45 53 -25 24 -45 51 -45 60
0 25 19 21 31 -7z m3541 -2 c6 -12 19 -25 30 -27 11 -3 22 -15 25 -26 3 -12
20 -26 38 -32 18 -7 38 -23 44 -36 6 -13 17 -23 25 -23 7 0 21 -18 30 -40 9
-22 21 -40 27 -40 12 0 38 -29 39 -42 0 -17 -30 -7 -47 15 -10 13 -28 29 -41
36 -12 6 -22 18 -22 26 0 17 -50 65 -67 65 -7 0 -13 7 -13 15 0 8 -10 20 -22
26 -30 16 -85 75 -85 92 0 22 28 16 39 -9z m-2611 -36 c27 -28 49 -55 49 -60
0 -4 7 -8 15 -8 8 0 15 -5 15 -11 0 -11 25 -39 35 -39 3 0 20 -16 38 -36 18
-20 40 -44 50 -53 21 -19 22 -31 2 -31 -8 0 -19 9 -25 19 -5 11 -26 25 -46 31
-19 7 -33 14 -30 17 10 10 -24 62 -44 68 -11 3 -20 13 -20 21 0 8 -11 19 -24
24 -13 5 -27 18 -31 29 -3 10 -17 26 -30 35 -25 17 -34 46 -14 46 5 0 32 -23
60 -52z m-6121 -81 c0 -7 15 -19 34 -26 22 -9 38 -24 46 -46 7 -18 24 -39 37
-46 27 -15 31 -39 6 -39 -10 0 -26 14 -35 31 -10 17 -22 28 -27 25 -5 -4 -12
2 -16 13 -3 10 -15 21 -25 24 -11 3 -20 12 -20 21 0 9 -4 16 -10 16 -5 0 -10
9 -10 20 0 11 5 20 10 20 6 0 10 -6 10 -13z m8100 -148 c0 -24 -23 -21 -28 4
-2 10 3 17 12 17 10 0 16 -9 16 -21z m-2473 -146 c4 -10 23 -34 42 -54 20 -19
44 -38 54 -42 9 -3 17 -12 17 -20 0 -7 16 -28 35 -47 19 -19 35 -40 35 -47 0
-7 7 -13 15 -13 8 0 22 -12 32 -27 10 -16 22 -31 28 -35 6 -5 4 -8 -5 -8 -21
0 -72 35 -63 43 3 4 2 7 -4 7 -15 0 -116 106 -125 131 -4 10 -13 19 -21 19 -7
0 -21 14 -30 30 -10 17 -22 30 -28 30 -5 0 -9 11 -9 25 0 29 17 34 27 8z
m-877 -6 c0 -6 27 -38 60 -70 33 -32 63 -70 66 -83 4 -14 14 -24 23 -24 23 0
91 -67 91 -89 0 -5 6 -12 13 -15 6 -3 1 -3 -13 0 -14 4 -36 17 -49 30 -13 13
-30 24 -37 24 -8 0 -16 11 -20 25 -4 15 -16 28 -29 31 -12 3 -29 21 -38 40 -9
19 -21 34 -26 34 -6 0 -18 14 -28 30 -9 17 -23 30 -29 30 -13 0 -25 35 -16 44
10 11 32 6 32 -7z m3540 0 c0 -7 29 -42 65 -76 36 -35 65 -70 65 -77 0 -8 11
-19 25 -24 14 -5 25 -16 25 -24 0 -9 10 -21 23 -27 25 -14 59 -50 53 -57 -10
-9 -66 11 -66 24 0 8 -11 20 -25 26 -14 6 -25 14 -25 18 0 4 -29 38 -65 75
-36 38 -65 77 -65 87 0 11 -4 17 -9 13 -12 -7 -34 32 -26 45 9 14 25 12 25 -3z
m918 -37 c7 0 17 -11 22 -24 5 -13 17 -27 28 -30 10 -4 25 -22 32 -41 8 -19
18 -35 23 -35 16 0 97 -85 97 -102 0 -14 -4 -14 -25 -5 -14 7 -25 15 -25 19 0
4 -23 29 -50 55 -28 26 -60 62 -71 79 -10 18 -32 37 -47 43 -26 11 -52 50 -52
80 0 10 9 7 28 -12 15 -15 34 -27 40 -27z m-8872 12 c6 -4 16 -17 22 -28 6
-12 27 -29 47 -38 20 -10 37 -27 41 -40 3 -13 19 -33 35 -45 16 -12 27 -26 24
-31 -3 -5 5 -10 17 -12 13 -2 26 -15 34 -34 12 -29 12 -32 -5 -27 -10 3 -28
18 -40 34 -12 16 -28 29 -36 29 -8 0 -15 5 -15 12 0 13 -68 78 -81 78 -5 0 -9
5 -9 12 0 6 -16 26 -35 44 -19 17 -35 37 -35 43 0 12 19 14 36 3z m-466 -404
c1 -26 22 -58 39 -58 6 0 16 -11 21 -25 5 -14 21 -30 35 -35 14 -5 25 -17 25
-26 0 -9 9 -18 20 -21 11 -3 20 -9 20 -13 0 -5 3 -15 6 -24 11 -30 -25 -17
-41 14 -9 17 -20 30 -26 30 -14 0 -74 61 -82 83 -4 9 -13 17 -21 17 -8 0 -16
8 -18 18 -5 24 3 62 13 62 5 0 9 -10 9 -22z m3549 -18 c6 -22 18 -40 26 -40 8
0 22 -13 32 -30 9 -16 25 -30 34 -30 10 0 20 -11 23 -25 4 -14 13 -25 21 -25
8 0 21 -13 30 -30 9 -16 22 -30 30 -30 8 0 15 -6 15 -13 0 -8 11 -19 25 -25
15 -7 25 -20 25 -32 0 -22 -1 -23 -24 -14 -9 3 -16 12 -16 20 0 8 -7 14 -15
14 -9 0 -24 13 -33 30 -9 16 -23 30 -30 30 -7 0 -18 11 -24 25 -6 14 -16 25
-21 25 -6 0 -30 21 -53 48 -24 26 -51 54 -59 63 -16 16 -21 79 -7 79 5 0 14
-18 21 -40z m-2664 0 c-3 -5 8 -18 25 -30 16 -12 30 -27 30 -33 0 -7 10 -17
23 -22 12 -6 26 -20 32 -32 5 -13 16 -23 23 -23 7 0 17 -11 22 -25 5 -14 21
-30 35 -35 14 -5 25 -16 25 -23 0 -8 11 -20 25 -27 26 -14 29 -30 7 -38 -6 -2
-17 8 -23 22 -7 14 -20 26 -31 26 -10 0 -18 7 -18 15 0 8 -13 21 -30 30 -16 9
-30 22 -30 29 0 8 -11 21 -24 30 -14 8 -27 25 -31 36 -3 11 -14 20 -23 20 -9
0 -25 14 -34 31 -20 33 -24 74 -8 64 6 -4 8 -10 5 -15z m882 -10 c3 -11 11
-20 19 -20 7 0 42 -29 77 -65 35 -36 69 -65 75 -65 7 0 12 -7 12 -15 0 -9 13
-23 28 -32 29 -16 60 -69 48 -80 -3 -4 -6 -1 -6 5 0 7 -7 12 -15 12 -8 0 -24
13 -36 29 -11 16 -32 35 -45 42 -13 7 -24 16 -24 21 0 10 -76 80 -100 92 -10
5 -24 21 -30 36 -7 16 -18 31 -27 34 -8 3 -11 10 -8 16 10 16 27 11 32 -10z
m7094 -7 c5 -12 15 -23 24 -23 9 0 20 -11 25 -25 5 -14 14 -25 19 -25 13 0
141 -121 141 -134 0 -6 9 -17 20 -24 21 -13 27 -32 10 -32 -14 0 -110 96 -110
109 0 5 -16 15 -35 21 -23 8 -35 18 -35 30 0 10 -9 21 -19 25 -11 3 -29 21
-40 40 -11 19 -25 35 -31 35 -5 0 -10 6 -10 13 0 23 31 15 41 -10z m-2659 -3
c12 0 48 -38 48 -50 0 -4 9 -10 21 -13 11 -3 23 -15 26 -26 3 -11 14 -23 25
-27 10 -3 24 -17 30 -30 6 -13 17 -24 23 -24 18 0 95 -77 95 -95 0 -21 -18
-19 -32 5 -7 11 -17 20 -23 20 -13 1 -105 86 -105 97 0 5 -12 16 -26 24 -14 7
-30 24 -35 36 -5 13 -15 23 -23 23 -16 0 -47 49 -45 72 0 10 2 10 6 1 2 -7 9
-13 15 -13z m-5982 -207 c0 -7 7 -13 15 -13 12 0 35 -28 35 -44 0 -17 -39 -2
-50 19 -7 14 -19 25 -26 25 -14 0 -27 28 -19 41 8 11 45 -12 45 -28z m8006
-59 c-5 -13 -10 -14 -18 -6 -6 6 -8 18 -4 28 5 13 10 14 18 6 6 -6 8 -18 4
-28z m-6890 -149 c3 -14 10 -25 15 -25 5 0 9 -7 9 -15 0 -9 11 -20 24 -26 21
-10 35 -35 36 -61 0 -3 -13 0 -30 8 -16 9 -30 22 -30 30 0 7 -11 21 -24 29
-29 19 -37 36 -29 64 7 28 21 26 29 -4z m5304 -3 c1 -25 21 -46 58 -63 18 -8
35 -22 38 -32 3 -10 16 -23 29 -29 13 -6 26 -21 29 -34 4 -13 13 -24 21 -24 9
0 24 -14 34 -31 10 -17 28 -37 40 -45 25 -18 28 -44 5 -44 -18 0 -44 23 -44
39 0 6 -6 11 -13 11 -8 0 -22 16 -33 36 -10 20 -29 40 -41 45 -13 5 -23 15
-23 24 0 8 -4 15 -9 15 -5 0 -32 22 -60 48 -41 39 -51 54 -51 81 0 32 20 36
20 3z m2733 -77 c21 -22 61 -65 90 -95 29 -30 58 -67 66 -82 8 -15 18 -25 23
-22 4 3 8 -2 8 -10 0 -9 -5 -16 -10 -16 -16 0 -90 81 -90 99 0 10 -14 22 -36
30 -19 7 -40 23 -46 37 -6 13 -18 24 -26 24 -7 0 -16 9 -19 20 -3 11 -9 20
-14 20 -17 0 -49 40 -49 61 0 20 0 20 33 -2 17 -13 49 -42 70 -64z m-8918 59
c14 -9 25 -21 25 -26 0 -5 7 -16 15 -24 8 -9 15 -12 15 -8 0 13 168 -165 175
-186 3 -11 13 -20 21 -20 15 0 19 -16 5 -24 -5 -3 -17 6 -27 19 -10 14 -23 25
-27 25 -12 0 -67 59 -67 71 0 5 -11 15 -25 21 -13 6 -27 19 -30 30 -4 10 -13
18 -21 18 -8 0 -20 11 -26 25 -6 14 -17 25 -23 25 -16 0 -30 18 -39 48 -9 26
-3 27 29 6z m4431 2 c8 -8 14 -17 14 -21 0 -9 68 -72 85 -79 8 -3 17 -16 20
-29 4 -15 18 -28 40 -36 19 -7 37 -21 41 -34 4 -12 20 -34 36 -49 16 -15 27
-32 23 -37 -8 -14 -33 -2 -40 19 -3 11 -14 22 -24 25 -23 7 -72 51 -65 58 3 3
-8 15 -25 28 -17 13 -31 29 -31 36 0 7 -11 18 -24 23 -13 5 -27 18 -31 29 -3
11 -15 23 -26 26 -10 4 -19 10 -19 15 0 5 -3 15 -6 24 -8 20 12 21 32 2z
m3546 -3 c10 -9 18 -22 18 -28 0 -7 9 -15 20 -18 11 -3 23 -13 27 -23 9 -23
63 -78 92 -93 11 -7 21 -17 21 -24 0 -6 19 -28 42 -49 34 -30 40 -40 30 -50
-10 -10 -19 -4 -47 25 -19 20 -35 42 -35 47 0 6 -7 10 -15 10 -9 0 -21 11 -27
25 -6 14 -15 25 -20 25 -11 0 -88 78 -88 89 0 5 -9 13 -21 16 -16 5 -39 40
-39 61 0 10 25 3 42 -13z m-8422 -439 c0 -8 11 -19 25 -24 14 -5 25 -14 25
-20 0 -17 111 -130 127 -130 7 0 18 -12 23 -26 6 -14 19 -28 29 -31 24 -6 35
-52 12 -48 -9 2 -19 4 -23 4 -4 1 -9 10 -13 21 -3 11 -22 27 -41 36 -19 9 -34
20 -34 24 0 4 -27 36 -60 71 -33 34 -60 66 -60 69 0 4 -11 16 -25 28 -25 21
-31 42 -18 55 9 9 33 -12 33 -29z m3538 7 c2 -12 14 -27 28 -33 30 -14 59 -57
47 -69 -15 -15 -36 -2 -61 36 -12 19 -27 35 -32 35 -6 0 -10 14 -10 31 0 36
23 36 28 0z m1772 -12 c0 -12 7 -19 19 -19 11 0 23 -9 26 -20 3 -11 15 -25 26
-30 10 -6 19 -17 19 -24 0 -8 9 -16 21 -19 11 -3 23 -14 26 -25 3 -11 13 -22
24 -25 10 -3 23 -17 29 -31 5 -14 16 -26 24 -26 19 0 39 -27 32 -45 -8 -22
-33 -8 -45 26 -5 16 -15 29 -20 29 -6 0 -33 22 -59 48 -27 27 -65 61 -85 76
-21 16 -37 35 -37 43 0 8 -10 23 -22 32 -14 12 -19 24 -15 36 6 14 10 15 22 5
8 -7 15 -21 15 -31z m-4430 5 c0 -8 6 -14 13 -14 14 0 71 -59 81 -85 3 -8 17
-20 31 -25 14 -5 25 -17 25 -26 0 -9 9 -18 21 -21 11 -3 25 -17 30 -30 5 -14
18 -27 29 -30 11 -3 20 -9 20 -13 0 -5 3 -15 6 -23 3 -10 0 -15 -8 -13 -17 2
-158 141 -158 156 0 5 -7 10 -15 10 -9 0 -21 11 -27 25 -6 14 -17 25 -25 25
-7 0 -13 5 -13 11 0 6 -7 17 -15 25 -17 17 -21 59 -5 49 6 -3 10 -13 10 -21z
m7970 1 c5 -14 17 -25 25 -25 9 0 19 -8 22 -17 4 -10 18 -30 32 -44 14 -14 34
-28 44 -32 9 -3 17 -14 17 -24 0 -10 13 -24 30 -31 17 -8 30 -20 30 -27 0 -7
11 -20 25 -29 27 -18 34 -46 10 -46 -8 0 -22 11 -30 24 -9 13 -25 26 -35 29
-12 3 -20 14 -20 26 0 13 -9 25 -22 30 -13 5 -40 28 -61 50 -20 23 -42 41 -47
41 -6 0 -10 6 -10 13 0 7 -11 24 -25 39 -28 31 -32 48 -10 48 9 0 20 -11 25
-25z m-5172 -149 c23 -25 42 -48 42 -53 0 -5 16 -15 35 -22 19 -7 35 -16 35
-21 0 -5 3 -15 6 -24 4 -10 1 -16 -9 -16 -17 0 -177 154 -177 170 0 21 27 8
68 -34z m-583 -284 c12 -9 24 -25 28 -35 4 -11 16 -21 26 -24 11 -3 21 -14 24
-25 3 -11 15 -22 26 -25 12 -3 21 -9 21 -14 0 -5 29 -38 65 -75 60 -62 79 -94
55 -94 -5 0 -10 4 -10 9 0 5 -9 13 -20 16 -11 3 -20 10 -20 15 0 4 -25 33 -55
63 -30 30 -55 60 -55 66 0 6 -6 11 -12 11 -23 1 -108 87 -108 109 0 25 8 26
35 3z m-2616 -52 c12 0 77 -64 90 -88 7 -12 16 -20 21 -17 5 3 16 -8 25 -25 8
-16 22 -30 30 -30 8 0 21 -13 30 -30 9 -16 20 -30 25 -30 6 0 10 -7 10 -15 0
-21 -17 -19 -30 5 -6 11 -17 20 -26 20 -8 0 -19 11 -25 24 -7 14 -22 27 -35
30 -15 4 -24 14 -24 27 0 11 -8 22 -17 26 -31 11 -131 114 -136 140 -4 24 -4
23 25 -6 17 -17 33 -31 37 -31z m7939 32 c2 -14 13 -24 28 -28 14 -4 30 -18
35 -31 5 -14 18 -27 29 -30 11 -3 20 -11 20 -17 0 -6 16 -26 35 -45 19 -18 35
-37 35 -42 0 -5 4 -9 9 -9 15 0 71 -53 71 -67 0 -27 -26 -11 -90 56 -36 37
-76 73 -88 80 -12 6 -22 18 -22 27 0 8 -11 20 -25 26 -14 6 -25 17 -25 24 0 8
-11 21 -25 30 -29 19 -35 57 -7 52 9 -2 18 -13 20 -26z m915 -25 c9 -4 22 -18
27 -32 5 -14 16 -25 25 -25 9 0 20 -11 25 -25 5 -14 16 -25 23 -25 8 0 19 -11
25 -24 6 -13 20 -27 30 -31 23 -7 37 -34 24 -47 -11 -11 -42 1 -42 16 0 6 -25
34 -55 61 -30 28 -55 56 -55 62 0 7 -11 15 -25 19 -16 4 -25 13 -25 26 0 10
-4 17 -10 13 -5 -3 -16 8 -25 24 -22 43 -19 48 13 19 15 -14 35 -28 45 -31z
m-5289 -33 c18 -16 38 -28 45 -26 7 2 15 -5 18 -16 3 -12 16 -28 29 -37 13 -8
24 -22 24 -30 0 -7 9 -17 20 -20 11 -4 27 -20 35 -36 14 -26 14 -29 0 -29 -17
0 -55 35 -55 50 0 6 -7 10 -15 10 -9 0 -24 13 -33 30 -9 16 -21 30 -26 30 -15
0 -126 120 -126 136 0 17 1 16 84 -62z m5514 -201 c6 -19 -25 -16 -32 3 -4 11
-1 14 11 12 9 -2 18 -9 21 -15z m-5301 -19 c-9 -9 -28 6 -21 18 4 6 10 6 17
-1 6 -6 8 -13 4 -17z m-672 -201 c18 -18 37 -33 44 -33 6 0 11 -6 11 -13 0 -8
14 -26 30 -41 17 -15 35 -38 40 -51 5 -14 16 -25 23 -25 18 0 57 -38 57 -55 0
-22 -67 12 -73 37 -3 11 -15 22 -26 25 -12 3 -21 11 -21 18 0 7 -7 18 -15 25
-8 7 -12 16 -9 21 3 5 -1 9 -8 9 -18 1 -110 89 -103 100 3 4 -2 10 -10 14 -8
3 -15 14 -15 24 0 32 13 34 28 6 8 -15 29 -43 47 -61z m-3591 53 c3 -14 14
-27 25 -31 10 -3 23 -17 29 -30 6 -14 20 -25 29 -25 10 0 24 -13 31 -30 8 -16
18 -30 23 -30 14 0 120 -113 116 -124 -7 -21 -23 -14 -51 24 -17 22 -38 40
-48 40 -10 0 -23 10 -28 23 -5 12 -23 35 -40 51 -16 16 -30 36 -30 43 0 8 -4
12 -10 8 -5 -3 -17 7 -27 22 -10 15 -25 34 -35 41 -9 7 -15 19 -12 27 9 22 21
18 28 -9z m910 -26 c8 0 16 -9 19 -21 3 -11 15 -23 27 -26 12 -3 26 -16 31
-29 4 -13 15 -24 23 -24 8 0 23 -16 32 -35 9 -19 20 -35 25 -35 10 0 78 -71
79 -82 0 -15 -27 -8 -45 12 -10 11 -24 20 -31 20 -7 0 -15 9 -19 19 -3 11 -14
22 -23 25 -9 4 -25 24 -34 46 -12 28 -23 40 -37 40 -12 0 -21 6 -21 13 0 6
-13 23 -30 37 -19 16 -32 38 -35 60 l-6 35 16 -27 c8 -16 22 -28 29 -28z
m3516 30 c0 -13 10 -24 25 -30 14 -5 25 -16 25 -25 0 -9 11 -20 25 -25 14 -5
25 -16 25 -25 0 -8 11 -21 25 -27 13 -6 27 -19 30 -29 3 -9 28 -39 55 -66 52
-50 59 -63 37 -63 -19 0 -137 117 -137 135 0 8 -13 21 -30 30 -16 9 -30 21
-30 29 0 7 -11 18 -25 24 -14 6 -25 18 -25 26 0 7 -7 16 -15 20 -8 3 -15 15
-15 26 0 11 7 20 15 20 8 0 15 -9 15 -20z m884 -5 c4 -14 13 -25 22 -25 9 0
18 -8 21 -19 2 -10 16 -24 29 -30 13 -6 24 -17 24 -25 0 -7 9 -16 21 -19 11
-3 23 -15 26 -26 3 -12 11 -21 19 -21 7 0 20 -13 29 -30 9 -16 22 -30 29 -30
8 0 19 -13 24 -29 10 -28 9 -29 -11 -22 -12 5 -27 18 -33 31 -7 12 -22 28 -35
34 -13 7 -23 18 -21 25 1 6 -5 14 -14 18 -20 7 -84 70 -84 82 0 5 -9 11 -20
14 -11 3 -24 17 -30 31 -5 14 -14 26 -20 26 -5 0 -10 9 -10 20 0 29 27 25 34
-5z m3541 -5 c3 -11 15 -20 25 -20 11 0 20 -10 24 -25 4 -15 16 -27 31 -31 14
-3 22 -10 19 -15 -3 -5 6 -13 20 -19 15 -5 28 -20 32 -35 3 -14 12 -25 20 -25
8 0 14 -6 14 -13 0 -7 13 -20 29 -30 31 -18 48 -57 25 -57 -7 0 -19 7 -26 16
-30 36 -130 134 -137 134 -4 0 -13 11 -19 25 -6 14 -18 25 -26 25 -8 0 -25 17
-37 38 -32 51 -33 52 -16 52 9 0 19 -9 22 -20z m-2625 -25 c7 -14 24 -32 37
-40 12 -9 23 -21 23 -28 0 -6 14 -20 30 -29 17 -9 30 -24 30 -33 0 -8 7 -15
15 -15 8 0 15 -7 15 -15 0 -13 6 -17 26 -14 4 0 15 -14 25 -31 11 -17 26 -33
34 -36 18 -7 20 -24 3 -24 -19 0 -128 99 -128 116 0 9 -4 13 -8 10 -12 -7 -26
6 -39 37 -7 15 -19 27 -26 27 -8 0 -19 11 -25 25 -6 14 -18 25 -27 25 -8 0
-15 4 -15 9 0 5 -3 16 -6 25 -10 26 21 19 36 -9z m1884 -101 c9 -3 16 -12 16
-19 0 -7 16 -30 35 -49 19 -20 35 -40 35 -45 0 -5 7 -11 15 -15 8 -3 15 -10
15 -16 0 -5 -18 0 -40 11 -22 12 -40 27 -40 35 0 8 -4 14 -9 14 -16 0 -61 53
-61 71 0 20 8 23 34 13z m-6764 -319 c8 -19 20 -35 27 -35 7 0 13 -6 13 -13 0
-8 9 -22 20 -32 11 -10 20 -15 20 -11 0 4 18 -15 40 -43 22 -28 47 -51 55 -51
9 0 20 -11 26 -24 6 -13 20 -27 30 -29 11 -3 19 -14 19 -26 0 -30 -34 -27 -48
4 -6 14 -17 25 -23 25 -6 0 -38 29 -71 65 -34 36 -66 65 -72 65 -6 0 -20 17
-31 38 -11 20 -25 41 -32 45 -20 13 -15 57 7 57 3 0 12 -16 20 -35z m4410 26
c0 -5 3 -17 6 -26 6 -15 4 -15 -15 -4 -24 16 -28 39 -6 39 8 0 15 -4 15 -9z
m-871 -24 c8 -21 67 -84 172 -184 65 -62 81 -82 75 -92 -9 -14 -33 -3 -39 19
-3 10 -18 21 -36 25 -17 4 -31 11 -31 16 0 10 -67 86 -117 133 -18 16 -33 35
-33 42 0 6 -7 14 -15 18 -20 7 -20 46 0 46 9 0 20 -11 24 -23z m3548 -9 c9
-18 16 -36 15 -41 -1 -4 10 -12 24 -17 14 -6 28 -19 31 -30 3 -11 11 -20 17
-20 7 0 19 -11 26 -25 7 -14 19 -25 26 -25 7 0 18 -13 25 -29 8 -17 26 -33 46
-40 22 -8 33 -19 33 -32 0 -10 -4 -19 -9 -19 -16 0 -98 73 -110 98 -6 12 -17
22 -26 22 -8 0 -15 7 -15 15 0 8 -3 15 -7 15 -5 0 -31 22 -59 48 -51 48 -71
82 -59 102 11 18 24 11 42 -22z m-7961 -22 c4 -25 13 -35 38 -44 18 -7 42 -25
54 -42 13 -16 29 -30 36 -30 8 0 16 -9 19 -21 3 -11 15 -23 26 -26 12 -3 21
-11 21 -17 0 -7 9 -22 20 -34 12 -12 16 -22 10 -22 -14 0 -25 10 -108 87 -37
35 -72 63 -78 63 -7 0 -14 9 -17 20 -3 11 -15 24 -27 28 -21 8 -54 65 -44 75
15 14 44 -8 50 -37z m8828 38 c9 -3 16 -12 16 -20 0 -8 7 -14 15 -14 9 0 20
-12 25 -26 6 -14 19 -28 30 -31 11 -3 20 -11 20 -18 0 -8 10 -22 23 -32 29
-23 42 -53 22 -53 -8 0 -19 6 -25 13 -55 63 -89 95 -108 101 -11 4 -28 21 -37
38 -23 47 -19 57 19 42z m-5281 -43 c15 -22 36 -43 48 -46 20 -7 89 -70 89
-82 0 -9 29 -33 39 -33 6 0 11 -6 11 -13 0 -8 9 -22 20 -32 22 -20 27 -39 8
-32 -7 2 -12 10 -10 16 1 6 -4 11 -12 11 -19 0 -106 79 -106 96 0 8 -3 13 -7
12 -16 -3 -63 26 -68 43 -3 10 -15 21 -26 24 -18 6 -39 41 -39 66 0 22 30 6
53 -30z m1789 -16 c6 -14 15 -26 20 -26 4 -1 14 -2 21 -3 6 0 13 -11 15 -24 2
-13 14 -27 28 -32 13 -5 24 -16 24 -25 0 -8 5 -15 10 -15 16 0 51 -40 45 -50
-11 -18 -35 -10 -47 15 -6 13 -19 27 -30 30 -10 4 -18 15 -18 25 0 11 -11 22
-29 28 -16 6 -32 19 -35 30 -4 11 -16 22 -26 25 -12 3 -20 14 -20 26 0 29 28
27 42 -4z m1092 -200 c7 -20 -23 -33 -34 -14 -5 7 -6 17 -4 21 9 13 32 9 38
-7z m-880 -3 c2 -4 1 -14 -3 -21 -7 -10 -13 -10 -30 -2 -11 7 -21 16 -21 21 0
12 47 13 54 2z m-1594 -172 c0 -5 16 -25 35 -45 20 -19 40 -35 45 -35 6 0 10
-5 10 -12 0 -6 15 -25 33 -42 17 -17 44 -45 59 -61 14 -17 38 -40 52 -52 29
-24 35 -63 11 -63 -9 0 -20 11 -25 25 -5 14 -23 39 -40 55 -16 16 -30 34 -30
40 0 5 -5 10 -12 10 -6 0 -36 25 -66 56 -30 30 -65 62 -78 71 -27 17 -33 63
-9 63 8 0 15 -4 15 -10z m2673 -42 c-2 -5 -13 -8 -24 -8 -13 0 -19 7 -19 24 0
13 6 26 12 28 13 5 38 -31 31 -44z m-6142 -39 c43 -45 79 -86 79 -90 0 -29
-51 8 -121 90 -9 10 -21 20 -27 22 -12 4 -28 59 -17 59 3 0 42 -37 86 -81z
m7014 61 c3 -11 11 -20 16 -20 15 0 239 -231 239 -246 0 -24 -18 -24 -34 0
-24 38 -65 76 -81 76 -8 0 -15 6 -15 14 0 13 -109 128 -136 144 -19 12 -28 52
-10 52 8 0 18 -9 21 -20z m895 -15 c0 -8 5 -15 11 -15 7 0 27 -16 46 -35 19
-19 40 -35 48 -35 7 0 16 -9 20 -19 3 -11 17 -26 30 -35 14 -9 25 -23 25 -31
0 -8 12 -20 27 -27 29 -14 45 -68 20 -68 -20 0 -37 21 -37 46 0 15 -9 25 -29
32 -16 6 -32 20 -36 31 -3 11 -9 20 -13 18 -12 -4 -162 137 -162 153 0 15 13
19 31 9 11 -5 19 -16 19 -24z m-8667 -176 c3 -10 17 -23 32 -29 14 -5 24 -14
20 -19 -3 -5 -1 -12 5 -16 16 -10 12 -32 -6 -32 -8 0 -22 14 -31 31 -9 17 -24
42 -34 55 -23 28 -24 42 -5 35 8 -3 16 -14 19 -25z m891 -4 c4 -16 13 -25 26
-25 11 0 20 -6 20 -12 0 -7 3 -23 6 -35 5 -18 3 -21 -15 -16 -12 3 -21 11 -21
17 0 6 -16 26 -35 45 -36 34 -38 51 -5 51 11 0 20 -10 24 -25z m-654 -229 c0
-7 11 -21 24 -30 14 -8 27 -24 30 -34 4 -11 21 -23 38 -28 26 -8 34 -17 41
-46 6 -27 15 -38 30 -40 12 -2 26 -12 31 -24 5 -11 19 -25 30 -30 21 -9 36
-54 17 -54 -12 0 -41 28 -41 41 0 5 -11 14 -24 20 -13 6 -27 20 -29 30 -3 10
-13 22 -22 25 -17 7 -65 51 -65 59 0 3 -18 24 -40 46 -37 39 -53 79 -30 79 6
0 10 -6 10 -14z m902 -8 c2 -13 13 -27 26 -33 12 -5 22 -14 22 -20 0 -6 18
-26 40 -45 22 -19 40 -42 40 -52 0 -10 14 -22 35 -29 19 -7 35 -19 35 -26 0
-7 11 -20 25 -29 28 -18 36 -57 9 -47 -8 3 -19 16 -24 28 -6 15 -21 26 -40 30
-17 4 -34 14 -38 23 -3 10 -17 29 -31 43 -128 130 -152 163 -128 173 22 8 26
6 29 -16z m3538 6 c0 -18 17 -37 43 -47 9 -3 17 -13 17 -20 0 -7 11 -19 23
-26 13 -7 30 -27 37 -45 9 -23 23 -37 46 -45 19 -7 34 -19 34 -26 0 -8 11 -22
25 -31 14 -9 25 -23 25 -30 0 -20 -28 -17 -39 5 -6 10 -26 26 -46 35 -19 9
-35 23 -35 30 0 7 -11 18 -24 24 -14 6 -30 27 -37 46 -7 20 -21 38 -31 42 -10
3 -18 12 -18 20 0 8 -3 14 -7 14 -16 1 -40 26 -47 48 -6 18 -4 22 13 22 12 0
21 -6 21 -16z m2659 -24 c9 0 25 -13 34 -30 10 -16 25 -30 33 -30 8 0 18 -8
21 -17 9 -23 58 -73 73 -73 6 0 14 -8 17 -17 4 -10 19 -30 35 -45 15 -14 28
-31 28 -36 0 -19 -42 1 -52 24 -6 13 -18 24 -26 24 -7 0 -16 9 -19 20 -3 11
-16 23 -29 26 -13 3 -24 12 -24 18 0 7 -11 22 -25 34 -14 12 -25 26 -25 31 0
5 -9 13 -20 16 -23 7 -51 55 -49 82 1 13 3 11 6 -4 3 -13 12 -23 22 -23z m889
5 c6 -14 15 -25 20 -25 12 0 79 -66 93 -91 8 -16 8 -24 -1 -33 -8 -8 -17 -4
-33 19 -12 17 -33 40 -46 52 -29 27 -71 84 -71 95 0 18 28 6 38 -17z m177
-184 c8 -16 28 -35 45 -43 17 -7 30 -21 30 -30 0 -21 1 -21 -38 -7 -16 5 -32
19 -35 30 -3 11 -14 23 -25 26 -11 2 -22 16 -25 29 -6 35 29 32 48 -5z m-7885
-91 c0 -5 -2 -10 -4 -10 -3 0 -8 5 -11 10 -3 6 -1 10 4 10 6 0 11 -4 11 -10z
m6377 -160 c10 -22 24 -40 31 -40 7 0 17 -11 22 -25 5 -14 17 -25 25 -25 9 0
19 -8 22 -17 9 -23 29 -43 42 -43 6 0 11 -4 11 -10 0 -14 32 -50 45 -50 13 -1
48 -70 35 -70 -5 0 -13 6 -17 14 -4 7 -18 18 -30 25 -13 6 -23 18 -23 26 0 8
-5 15 -11 15 -14 0 -39 25 -39 40 0 6 -11 15 -24 20 -13 5 -27 18 -31 29 -3
11 -15 23 -26 26 -11 4 -25 18 -31 31 -6 13 -17 24 -25 24 -8 0 -13 12 -13 35
0 46 16 44 37 -5z m1755 15 c6 -13 19 -27 29 -30 9 -3 22 -18 27 -33 8 -25 7
-28 -12 -30 -17 -1 -28 10 -49 51 -15 28 -27 55 -27 60 0 17 21 5 32 -18z
m-849 -35 c15 -12 27 -30 27 -40 0 -10 9 -20 21 -23 11 -3 23 -14 25 -24 3
-10 18 -26 35 -35 16 -9 29 -23 29 -31 0 -8 11 -19 25 -25 14 -6 25 -18 25
-26 0 -7 9 -16 20 -19 12 -3 20 -14 20 -26 0 -29 -27 -26 -34 4 -4 14 -13 25
-21 25 -9 0 -20 10 -26 23 -5 12 -23 30 -40 39 -16 9 -29 24 -29 33 0 8 -5 15
-12 15 -14 0 -112 101 -122 125 -4 11 -1 22 6 26 8 5 15 3 18 -6 3 -7 17 -23
33 -35z m-2667 4 c19 -20 34 -42 34 -49 0 -6 15 -17 34 -25 19 -7 37 -22 39
-32 5 -17 2 -18 -26 -12 -29 6 -56 28 -57 47 0 4 -7 7 -15 7 -14 0 -36 34 -49
78 -10 31 0 28 40 -14z m-4446 16 c0 -5 3 -9 8 -9 22 4 31 -4 37 -32 4 -19 16
-34 31 -39 13 -5 29 -21 34 -35 5 -14 16 -25 25 -25 9 0 20 -11 25 -25 5 -14
16 -25 24 -25 9 0 21 -10 27 -22 14 -27 49 -57 67 -58 26 0 11 -17 -17 -18
-20 0 -32 6 -41 24 -7 13 -21 26 -32 30 -10 3 -18 12 -18 19 0 8 -13 21 -30
30 -16 9 -30 22 -30 31 0 8 -11 19 -25 24 -14 5 -25 16 -25 25 0 8 -3 15 -7
15 -27 1 -89 100 -63 100 5 0 10 -4 10 -10z m923 -32 c3 -11 10 -17 16 -13 6
3 11 1 11 -5 0 -6 27 -39 60 -72 33 -34 60 -65 60 -69 0 -4 9 -11 20 -14 11
-3 20 -12 20 -19 0 -8 7 -19 15 -26 17 -14 20 -40 5 -40 -5 0 -10 7 -10 15 0
8 -5 15 -12 15 -14 0 -76 68 -84 93 -3 9 -11 17 -17 17 -7 0 -26 12 -43 28
-17 15 -43 37 -58 49 -32 28 -37 74 -7 66 11 -3 22 -14 24 -25z m397 -382 c0
-17 81 -106 97 -106 6 0 13 -9 16 -21 3 -11 14 -23 25 -26 11 -3 23 -16 26
-29 4 -14 14 -24 24 -24 10 0 23 -14 31 -32 8 -18 23 -39 33 -46 10 -7 18 -17
18 -23 0 -16 -25 -9 -38 11 -7 11 -19 20 -26 20 -8 0 -20 16 -26 35 -6 19 -16
35 -21 35 -13 0 -99 85 -99 98 0 6 -9 14 -21 17 -11 4 -25 18 -31 31 -6 13
-15 24 -20 24 -4 0 -8 11 -8 25 0 14 5 25 10 25 6 0 10 -6 10 -14z m4430 -3
c0 -9 47 -62 105 -118 58 -56 105 -107 105 -113 0 -6 9 -16 20 -22 28 -15 45
-49 31 -63 -8 -8 -23 3 -56 38 -25 28 -47 57 -50 66 -3 9 -15 19 -26 22 -11 3
-23 15 -26 26 -3 12 -9 21 -15 21 -12 0 -80 68 -102 102 -18 28 -16 58 4 58 5
0 10 -8 10 -17z m-5304 -18 c3 -14 10 -25 15 -25 5 0 9 -6 9 -14 0 -7 9 -16
21 -19 11 -3 23 -15 26 -27 3 -12 17 -26 30 -31 14 -5 27 -18 30 -29 3 -11 12
-20 19 -20 8 0 14 -4 14 -10 0 -5 8 -10 18 -10 11 0 23 -13 31 -35 7 -19 18
-35 26 -35 18 0 28 -17 21 -37 -6 -14 -9 -13 -29 6 -12 11 -39 37 -59 57 -21
20 -38 40 -38 45 0 5 -11 14 -25 19 -14 5 -25 16 -25 25 0 8 -11 21 -25 27
-14 6 -25 15 -25 19 0 4 -13 21 -30 37 -18 18 -30 41 -30 56 0 33 18 34 26 1z
m7114 -52 c0 -7 5 -13 11 -13 16 0 90 -76 82 -84 -12 -12 -32 -6 -38 12 -3 11
-17 24 -30 30 -14 6 -25 16 -25 22 0 15 -26 41 -34 33 -8 -9 -27 47 -19 60 7
12 53 -40 53 -60z m-902 31 c12 -8 22 -22 22 -29 0 -8 11 -17 24 -21 15 -3 27
-15 30 -30 4 -13 12 -24 19 -24 7 0 23 -13 37 -30 14 -16 30 -30 37 -30 7 0
13 -6 13 -14 0 -8 7 -16 15 -20 8 -3 15 -12 15 -21 0 -8 5 -15 10 -15 6 0 10
-4 10 -9 0 -13 -51 0 -57 15 -8 22 -60 74 -72 74 -6 0 -17 11 -23 25 -6 13
-19 27 -28 30 -9 3 -22 16 -28 29 -6 13 -20 27 -30 30 -11 4 -22 18 -25 31 -5
29 0 31 31 9z m-3990 -437 c7 -15 17 -27 23 -27 11 0 89 -77 89 -88 0 -15 95
-105 123 -115 21 -8 22 -21 3 -37 -12 -9 -17 -7 -28 9 -7 12 -18 21 -23 21 -6
0 -19 13 -28 30 -10 16 -28 35 -40 41 -27 14 -57 45 -57 58 0 5 -11 18 -25 29
-14 11 -25 24 -25 28 0 5 -13 19 -30 32 -17 14 -27 29 -23 38 8 21 26 12 41
-19z m3537 10 c4 -13 19 -31 36 -41 16 -9 29 -23 29 -31 0 -7 9 -17 21 -20 11
-4 27 -22 36 -40 9 -18 26 -39 39 -46 13 -7 24 -18 24 -25 0 -6 11 -19 25 -28
14 -9 25 -23 25 -30 0 -8 6 -17 13 -19 7 -4 6 -6 -4 -6 -21 -1 -179 153 -179
174 0 9 -8 19 -17 22 -28 11 -83 74 -83 94 0 27 29 23 35 -4z m876 13 c1 -5 2
-16 3 -22 0 -7 12 -15 25 -16 13 -2 25 -12 28 -22 3 -9 18 -27 34 -39 16 -12
29 -28 29 -36 0 -8 7 -15 15 -15 8 0 15 -7 15 -15 0 -23 -30 -18 -56 11 -13
14 -24 28 -24 31 0 10 -64 69 -82 76 -26 9 -23 57 4 57 4 0 9 -4 9 -10z
m-5301 -14 c0 -7 25 -35 55 -64 30 -29 55 -57 55 -62 0 -5 9 -12 20 -15 11 -3
20 -13 20 -22 0 -12 -6 -14 -27 -8 -16 3 -30 12 -32 18 -3 9 -35 46 -108 125
-18 18 -16 39 2 39 8 0 15 -5 15 -11z m3550 -10 c5 -14 18 -30 29 -35 11 -6
28 -24 37 -40 10 -16 22 -27 29 -25 6 3 17 -11 24 -29 9 -24 24 -38 47 -48 19
-7 34 -17 34 -22 0 -4 12 -24 26 -43 33 -43 11 -47 -29 -5 -15 17 -36 33 -47
36 -11 4 -20 13 -20 21 0 8 -10 18 -23 23 -12 5 -29 25 -36 44 -8 20 -18 34
-21 32 -10 -6 -90 83 -90 101 0 23 30 16 40 -10z m-4450 4 c0 -6 18 -18 39
-27 22 -10 42 -26 45 -36 2 -10 14 -21 25 -24 12 -3 21 -14 21 -24 0 -11 5
-19 10 -19 6 0 10 -7 10 -16 0 -9 9 -18 20 -21 11 -3 23 -15 26 -27 3 -12 18
-27 34 -33 20 -7 28 -17 27 -31 -1 -17 -4 -18 -24 -9 -13 6 -23 16 -23 24 0 7
-11 18 -25 23 -14 5 -25 14 -25 20 0 6 -16 24 -35 41 -19 17 -37 39 -40 49 -3
10 -20 25 -36 32 -30 13 -80 88 -59 88 5 0 10 -5 10 -10z m1094 -196 c19 -19
21 -34 3 -34 -17 0 -37 20 -37 37 0 18 15 16 34 -3z m50 -50 c17 -17 21 -34 8
-34 -18 0 -45 28 -38 38 9 15 12 15 30 -4z m-698 -171 c7 -10 14 -26 14 -35 0
-10 6 -18 13 -18 8 0 22 -9 32 -20 10 -11 14 -20 9 -20 -5 0 2 -6 16 -13 14
-7 29 -22 35 -35 5 -12 18 -25 27 -28 9 -3 20 -14 23 -25 4 -11 18 -24 31 -29
13 -5 24 -16 24 -23 0 -7 12 -24 27 -37 16 -14 22 -25 15 -28 -6 -2 -22 8 -35
22 -14 14 -29 26 -36 26 -6 0 -11 6 -11 14 0 8 -14 23 -30 33 -17 9 -33 25
-36 35 -3 10 -11 18 -19 18 -7 0 -20 11 -28 23 -26 40 -84 97 -98 98 -8 0 -9
3 -3 5 6 3 9 16 6 29 -5 29 5 32 24 8z m879 -3 c4 -11 11 -18 16 -15 5 4 9 0
9 -6 0 -15 95 -109 110 -109 6 0 10 -5 10 -11 0 -15 70 -84 94 -92 10 -4 16
-10 13 -14 -4 -3 -2 -12 5 -20 15 -18 8 -22 -20 -12 -13 5 -26 18 -29 29 -3
11 -9 18 -13 15 -11 -7 -90 74 -90 91 0 8 -10 18 -22 23 -42 17 -108 87 -108
115 0 31 16 34 25 6z m1790 -10 c4 -17 17 -37 29 -45 13 -9 29 -26 36 -40 7
-14 19 -25 27 -25 7 0 18 -11 23 -25 5 -14 15 -25 21 -25 17 0 130 -120 123
-131 -7 -11 -24 -2 -42 23 -7 10 -20 18 -28 18 -8 0 -14 7 -14 15 0 8 -4 15
-10 15 -14 0 -95 81 -103 103 -4 9 -16 17 -27 17 -13 0 -20 7 -20 18 0 11 -11
24 -25 30 -20 9 -25 19 -25 47 0 44 26 48 35 5z m879 -8 c5 -18 13 -32 18 -32
14 0 204 -192 200 -202 -1 -5 6 -11 15 -15 29 -10 45 -43 22 -43 -6 0 -20 11
-31 25 -11 14 -26 25 -34 25 -8 0 -14 9 -14 19 0 11 -9 22 -19 26 -11 3 -26
17 -35 30 -9 14 -23 25 -31 25 -9 0 -20 12 -25 26 -6 14 -19 28 -30 31 -11 3
-20 12 -20 19 0 8 -4 14 -10 14 -5 0 -10 7 -10 15 0 8 -7 15 -15 15 -10 0 -15
10 -15 31 0 40 21 34 34 -9z m881 7 c4 -17 4 -33 1 -36 -11 -11 -33 17 -30 39
3 29 2 28 13 28 5 0 12 -14 16 -31z m941 -66 c51 -51 57 -67 22 -54 -24 8 -88
70 -88 84 0 7 -3 23 -6 37 -5 23 -5 24 7 5 7 -11 36 -44 65 -72z m-3491 -43
c9 0 85 -83 85 -92 0 -5 6 -8 14 -8 16 0 31 -17 40 -47 6 -18 4 -21 -15 -16
-12 3 -29 19 -38 35 -9 15 -24 31 -34 34 -10 3 -23 17 -29 30 -6 13 -16 24
-21 24 -5 0 -36 26 -68 57 -41 39 -59 65 -59 82 0 22 6 18 59 -37 33 -34 63
-62 66 -62z m2637 20 c4 -12 17 -24 28 -27 11 -3 20 -10 20 -16 0 -11 88 -97
100 -97 4 0 13 -13 19 -30 16 -48 -6 -38 -79 36 -36 36 -77 77 -92 92 -16 15
-28 30 -28 33 0 4 -9 9 -20 12 -12 3 -20 14 -20 26 0 19 2 19 32 7 17 -8 35
-24 40 -36z m356 -356 c-4 -24 -23 -19 -21 6 1 33 3 34 14 23 6 -6 9 -19 7
-29z m-3548 14 c0 -16 84 -98 99 -98 6 0 11 -4 11 -9 0 -5 3 -16 6 -25 11 -29
-22 -17 -64 24 -23 21 -42 46 -42 54 0 7 -7 16 -15 20 -17 6 -21 46 -5 46 6 0
10 -6 10 -12z m890 -8 c0 -13 10 -24 25 -30 14 -5 25 -16 25 -25 0 -8 11 -21
25 -27 14 -6 25 -17 25 -24 0 -8 14 -20 30 -29 17 -9 30 -22 30 -30 0 -9 11
-21 25 -27 14 -6 25 -17 25 -23 0 -7 12 -24 27 -39 34 -34 23 -44 -22 -21 -21
12 -36 29 -40 46 -3 15 -17 31 -31 37 -13 7 -29 23 -36 37 -6 14 -15 25 -20
25 -5 0 -34 24 -64 54 -53 53 -70 96 -39 96 8 0 15 -9 15 -20z m880 -6 c0 -9
9 -18 21 -21 11 -3 25 -17 30 -30 5 -14 18 -27 29 -30 11 -3 20 -12 20 -19 0
-8 8 -18 18 -21 20 -8 92 -81 92 -94 0 -5 7 -9 15 -9 15 0 40 -48 31 -58 -8
-7 -56 27 -56 40 0 12 -67 78 -80 78 -5 0 -12 9 -15 20 -3 11 -13 20 -21 20
-8 0 -20 11 -26 25 -6 14 -17 25 -24 25 -12 0 -64 70 -64 85 0 3 7 5 15 5 8 0
15 -7 15 -16z m895 -10 c8 3 19 -7 27 -24 7 -16 20 -31 30 -33 10 -3 22 -17
28 -31 5 -14 16 -26 25 -26 8 0 21 -11 27 -25 6 -14 25 -30 43 -36 20 -8 36
-23 44 -43 8 -17 21 -37 29 -43 9 -7 13 -16 9 -20 -4 -3 -15 1 -24 9 -10 8
-26 18 -35 21 -10 4 -18 13 -18 22 0 8 -7 15 -15 15 -8 0 -15 4 -15 9 0 13
-135 151 -148 151 -10 0 -33 54 -31 74 1 6 3 3 6 -7 3 -11 11 -16 18 -13z
m-3523 -11 c10 -9 18 -22 18 -28 0 -7 9 -15 20 -18 11 -3 24 -16 29 -30 6 -14
19 -28 30 -32 21 -6 121 -103 121 -116 0 -15 -57 15 -66 34 -5 12 -24 28 -41
36 -18 9 -33 22 -33 28 0 7 -13 19 -28 27 -15 8 -34 26 -41 40 -8 14 -18 23
-23 20 -6 -4 -28 35 -28 52 0 10 25 3 42 -13z m1018 -133 c0 -11 36 -50 46
-50 13 0 64 -66 64 -84 0 -19 -1 -19 -23 2 -13 12 -29 22 -35 22 -6 0 -19 15
-28 33 -9 17 -25 38 -35 45 -23 16 -25 42 -4 42 8 0 15 -4 15 -10z m2063 -280
c9 -11 17 -24 17 -30 0 -5 8 -14 18 -19 15 -9 14 -10 -8 -11 -18 0 -30 9 -42
31 -29 50 -19 68 15 29z m-877 -4 c8 -8 14 -21 14 -29 0 -7 11 -19 25 -25 14
-6 25 -18 25 -26 0 -8 9 -17 19 -21 15 -4 36 -43 28 -51 -1 -1 -18 5 -38 14
-22 9 -40 27 -49 46 -7 17 -24 40 -38 52 -17 14 -23 27 -19 37 8 21 14 21 33
3z m-865 -33 c5 -14 18 -27 29 -30 11 -3 20 -11 20 -18 0 -8 9 -17 20 -20 28
-9 15 -25 -21 -25 -17 0 -29 5 -29 13 0 7 -15 28 -34 46 -38 37 -45 71 -13 63
10 -3 23 -16 28 -29z"/>
<path d="M7405 10190 c3 -5 11 -10 16 -10 6 0 7 5 4 10 -3 6 -11 10 -16 10 -6
0 -7 -4 -4 -10z"/>
<path d="M5686 8472 c-9 -8 -7 -65 3 -81 5 -7 14 -10 20 -7 6 4 15 -2 19 -14
4 -12 19 -27 32 -33 28 -14 40 -47 16 -47 -8 0 -20 6 -26 13 -6 6 -19 23 -30
36 -14 17 -24 21 -31 14 -7 -7 -9 -129 -6 -379 4 -356 7 -400 37 -479 1 -2 4
-13 7 -24 3 -13 11 -17 24 -14 13 4 21 -2 29 -22 13 -35 13 -42 -2 -27 -34 34
-38 -21 -7 -94 11 -27 24 -58 29 -69 21 -53 76 -161 88 -173 6 -7 12 -18 12
-23 0 -21 130 -206 209 -299 31 -36 67 -78 80 -95 39 -47 275 -279 328 -321
26 -21 64 -52 84 -69 19 -16 55 -46 79 -65 24 -19 57 -46 73 -60 167 -138 787
-533 787 -502 0 5 -24 29 -54 52 -30 24 -57 52 -59 62 -3 10 -14 18 -26 18
-12 0 -21 6 -21 13 0 7 -22 33 -50 58 -40 35 -50 50 -50 76 0 17 5 35 10 38 6
3 10 -3 10 -13 0 -11 7 -25 15 -32 8 -7 15 -19 15 -26 0 -8 4 -14 9 -14 15 0
78 -65 85 -88 4 -12 15 -22 24 -22 10 0 23 -14 31 -30 7 -17 18 -29 23 -28 19
7 71 -51 65 -72 -3 -11 -1 -20 3 -20 5 0 28 -13 52 -28 24 -16 77 -47 118 -69
41 -22 84 -44 95 -51 23 -12 332 -161 385 -185 19 -9 90 -41 158 -71 68 -31
127 -56 133 -56 17 0 243 111 264 130 11 9 36 20 55 24 34 6 90 40 80 49 -3 2
-62 34 -132 71 -88 46 -129 62 -134 54 -4 -7 -2 -14 4 -16 7 -2 12 -10 12 -18
0 -8 8 -18 18 -21 9 -4 22 -12 28 -17 5 -6 13 -19 17 -28 3 -10 13 -18 20 -18
13 0 42 -48 34 -57 -9 -9 -57 18 -57 32 0 8 -11 21 -25 27 -14 6 -25 16 -25
22 0 7 -16 27 -36 45 -30 29 -33 36 -20 43 19 11 12 26 -17 39 -12 5 -29 13
-37 19 -8 6 -55 28 -105 51 -135 61 -232 107 -310 147 -38 19 -77 39 -85 43
-90 43 -154 77 -201 105 -31 19 -62 34 -68 34 -6 0 -11 4 -11 8 0 4 -12 13
-27 19 -16 7 -49 24 -75 40 -25 15 -84 50 -130 77 -45 27 -128 79 -183 115
-55 36 -109 72 -120 79 -37 23 -70 47 -209 151 -131 98 -163 122 -190 146 -6
6 -40 35 -75 65 -98 84 -306 296 -372 380 -33 41 -69 86 -80 100 -12 13 -26
35 -32 47 -6 13 -13 23 -17 23 -4 0 -13 14 -20 30 -7 17 -16 30 -21 30 -5 0
-9 6 -9 13 0 7 -22 57 -50 111 -84 166 -119 325 -120 548 0 118 -4 148 -22
148 -14 0 -78 71 -78 86 0 22 10 17 47 -21 19 -19 38 -35 43 -35 17 0 12 216
-4 229 -26 22 -344 179 -350 173z m310 -1247 c19 -18 34 -39 34 -45 0 -6 7
-13 16 -17 21 -8 139 -125 154 -152 6 -12 17 -21 25 -21 15 0 21 -21 9 -33 -9
-9 -34 4 -34 17 0 7 -11 18 -25 24 -14 6 -25 18 -25 27 0 8 -13 21 -30 30 -16
9 -30 22 -30 30 0 8 -5 15 -10 15 -20 0 -110 99 -110 120 0 11 -4 20 -10 20
-5 0 -10 5 -10 10 0 17 12 11 46 -25z m444 -450 c5 -14 21 -30 35 -35 14 -5
25 -16 25 -25 0 -9 11 -20 25 -25 14 -5 25 -15 25 -22 0 -7 10 -18 23 -23 12
-6 23 -20 25 -32 2 -13 10 -23 18 -23 18 0 44 -24 44 -39 0 -6 7 -11 15 -11 8
0 15 -9 15 -20 0 -11 -2 -20 -4 -20 -14 0 -36 14 -36 22 0 13 -68 78 -81 78
-5 0 -9 7 -9 15 0 9 -12 20 -26 25 -14 6 -28 19 -31 29 -3 11 -14 21 -25 24
-11 3 -22 14 -25 25 -2 11 -16 25 -29 31 -14 6 -24 19 -24 31 0 29 29 25 40
-5z m410 -405 c0 -6 11 -16 25 -22 14 -6 28 -22 31 -35 4 -13 12 -23 19 -23 8
0 22 -11 33 -25 11 -14 25 -25 31 -25 7 0 17 -13 22 -30 7 -19 18 -30 30 -30
12 0 19 -7 19 -20 0 -13 10 -24 25 -30 15 -6 25 -17 25 -30 0 -28 -28 -25 -41
4 -6 13 -20 27 -30 29 -10 3 -23 17 -29 31 -6 16 -15 24 -23 20 -9 -3 -19 6
-27 25 -7 17 -19 31 -26 31 -8 0 -14 5 -14 11 0 5 -22 31 -49 57 -26 26 -46
53 -44 60 6 14 23 16 23 2z"/>
<path d="M6890 7175 c0 -5 5 -17 10 -25 5 -8 10 -10 10 -5 0 6 -5 17 -10 25
-5 8 -10 11 -10 5z"/>
<path d="M6946 7105 c4 -8 12 -15 20 -15 8 0 11 6 8 15 -4 8 -12 15 -20 15 -8
0 -11 -6 -8 -15z"/>
<path d="M2034 9848 c-8 -13 -27 -172 -40 -343 -4 -49 -11 -98 -16 -109 -13
-24 1 -37 43 -40 67 -6 235 -27 288 -37 30 -5 73 -9 96 -9 l41 0 13 138 c6 75
16 173 22 217 18 147 20 139 -31 147 -39 6 -222 28 -361 44 -33 4 -49 2 -55
-8z"/>
<path d="M14585 9858 c-33 -5 -63 -13 -68 -17 -4 -4 -3 -39 3 -77 20 -138 40
-311 40 -356 0 -26 4 -49 9 -53 10 -6 181 11 189 19 4 5 -8 130 -28 281 -13
91 -19 153 -19 188 -1 24 -5 27 -33 26 -18 -1 -60 -6 -93 -11z"/>
<path d="M14585 8739 c-4 -101 -5 -215 -3 -254 l3 -70 225 -5 c124 -3 230 -1
235 3 6 5 11 106 13 252 l4 245 -94 0 c-51 0 -157 3 -234 7 l-142 6 -7 -184z"/>
<path d="M2550 7049 c-30 -12 -65 -23 -77 -26 -12 -3 -23 -10 -26 -17 -2 -6
18 -85 45 -176 27 -91 53 -181 59 -200 6 -19 14 -48 18 -65 9 -35 1 -35 114
-1 82 25 88 29 81 49 -4 12 -20 67 -35 122 -15 55 -41 145 -58 200 -17 55 -31
108 -31 118 0 22 -22 21 -90 -4z"/>
<path d="M14256 6653 c-38 -117 -104 -303 -123 -347 -20 -45 -20 -45 94 -88
83 -31 77 -34 107 62 10 30 21 64 26 75 5 11 27 73 49 137 22 65 45 127 52
139 9 18 8 24 -7 33 -25 14 -153 66 -164 66 -5 0 -20 -35 -34 -77z"/>
<path d="M4255 4067 c-31 -36 -272 -325 -282 -338 -11 -14 1 -30 85 -111 152
-149 243 -233 252 -233 7 0 85 90 225 259 22 27 50 60 62 75 13 14 23 28 23
31 0 9 -338 330 -347 330 -4 -1 -13 -6 -18 -13z"/>
<path d="M6412 2568 c-12 -40 -25 -87 -28 -104 l-6 -31 209 -71 c114 -40 216
-72 226 -72 9 0 17 7 17 15 0 9 12 52 26 96 14 45 22 85 18 89 -5 4 -40 18
-79 29 -38 12 -126 41 -195 65 -69 25 -134 47 -146 50 -18 5 -23 -2 -42 -66z"/>
</g>
</svg>
